<?xml version="1.0" encoding="UTF-8" standalone="no"?>
<!-- Created with Inkscape (http://www.inkscape.org/) -->

<svg
   xmlns:dc="http://purl.org/dc/elements/1.1/"
   xmlns:cc="http://creativecommons.org/ns#"
   xmlns:rdf="http://www.w3.org/1999/02/22-rdf-syntax-ns#"
   xmlns:svg="http://www.w3.org/2000/svg"
   xmlns="http://www.w3.org/2000/svg"
   xmlns:sodipodi="http://sodipodi.sourceforge.net/DTD/sodipodi-0.dtd"
   xmlns:inkscape="http://www.inkscape.org/namespaces/inkscape"
   version="1.1"
   width="100%"
   height="100%"
   viewBox="0 0 88.622998 86.669618"
   id="svg2"
   inkscape:version="0.48.3.1 r9886"
   sodipodi:docname="aries.svg">
  <sodipodi:namedview
     pagecolor="#ffffff"
     bordercolor="#666666"
     borderopacity="1"
     objecttolerance="10"
     gridtolerance="10"
     guidetolerance="10"
     inkscape:pageopacity="0"
     inkscape:pageshadow="2"
     inkscape:window-width="873"
     inkscape:window-height="717"
     id="namedview6"
     showgrid="false"
     fit-margin-top="0"
     fit-margin-left="0"
     fit-margin-right="0"
     fit-margin-bottom="0"
     borderlayer="true"
     inkscape:zoom="6.2536332"
     inkscape:cx="44.311499"
     inkscape:cy="43.334809"
     inkscape:window-x="0"
     inkscape:window-y="31"
     inkscape:window-maximized="0"
     inkscape:current-layer="svg2" />
  <defs
     id="defs20" />
  <path
     d="m 38.916053,21.97212 c -1.4649,-0.65098 -3.2715,-1.5706 -5.4199,-2.7588 -2.1485,-1.1881 -4.2725,-2.3681 -6.3721,-3.54 -2.0996,-1.1718 -3.9551,-2.1565 -5.5664,-2.9541 -1.6114,-0.79746 -3.0518,-1.3427 -4.3213,-1.6357 -1.1719,-0.26035 -2.2787,-0.39056 -3.3203,-0.39062 -2.5391,6.9e-5 -3.8086,1.1394 -3.8086,3.418 -2e-5,0.71621 0.0814,1.4649 0.24414,2.2461 0.16274,0.78131 0.40688,1.7009 0.73242,2.7588 0.3255,1.058 0.6022,1.9776 0.83008,2.7588 0.65102,2.3438 1.3021,4.126 1.9531,5.3467 0.65102,1.2208 1.5218,2.2217 2.6123,3.0029 1.0905,0.7813 2.775,1.6114 5.0537,2.4902 v 10.791 c -1.2696,-0.65101 -3.182,-1.5299 -5.7373,-2.6367 -2.5554,-1.1067 -4.6794,-2.2949 -6.3720997,-3.5644 -1.6927,-1.2695 -3.2552,-3.1331 -4.6875,-5.5908 -1.4323,-2.4576 -2.6367,-5.7373 -3.6133,-9.8389 C 0.37429329,19.0101 -6.7050984e-6,16.178 -6.7050984e-6,13.3785 -6.7050984e-6,8.8213 1.1799933,5.4521 3.5399933,3.2715 5.8999933,1.0906 9.0982933,10e-5 13.134693,0 c 1.3021,7.9e-5 2.6692,0.09774 4.1016,0.29297 3.3854,0.55346 6.3395,1.2859 8.8623,2.1973 2.5228,0.91154 4.8014,1.9858 6.8359,3.2227 2.0345,1.2371 4.5003,2.8972 7.3975,4.9805 h 8.0078 c 2.8971,-2.0833 5.3548,-3.7434 7.373,-4.9805 2.0182,-1.2369 4.3049,-2.3111 6.8604,-3.2227 2.5553,-0.91138 5.5094,-1.6438 8.8623,-2.1973 1.3671,-0.19523 2.7343,-0.29289 4.1016,-0.29297 2.5715,7.9e-5 4.8502,0.46395 6.8359,1.3916 1.9856,0.92781 3.5237,2.3845 4.6143,4.3701 1.0904,1.9857 1.6356,4.5248 1.6357,7.6172 -9e-5,2.7995 -0.37444,5.6316 -1.123,8.4961 -0.97665,4.0691 -2.1729,7.3487 -3.5889,9.8389 -1.4161,2.4903 -2.9623,4.362 -4.6387,5.6152 -1.6765,1.2533 -3.8005,2.4333 -6.3721,3.54 -2.5717,1.1068 -4.4923,1.9857 -5.7617,2.6367 v -10.791 c 2.3111,-0.87886 4.0038,-1.7171 5.0781,-2.5146 1.0741,-0.79747 1.9286,-1.7984 2.5635,-3.0029 0.63468,-1.2044 1.2776,-2.9785 1.9287,-5.3223 1.2043,-3.9062 1.8066,-6.4941 1.8066,-7.7637 -8e-5,-2.2786 -1.2696,-3.4179 -3.8086,-3.418 -1.0418,6.9e-5 -2.1322,0.13028 -3.2715,0.39062 -1.3998,0.32559 -3.0844,0.99291 -5.0537,2.002 -1.9695,1.0092 -4.8178,2.5554 -8.5449,4.6387 -3.7273,2.0834 -6.4372,3.4994 -8.1299,4.248 v 64.697 h -10.791 z"
     id="path3067"
     inkscape:connector-curvature="0" />
  <metadata
     id="metadata16">
    <rdf:RDF>
      <cc:Work>
        <dc:format>image/svg+xml</dc:format>
        <dc:type
           rdf:resource="http://purl.org/dc/dcmitype/StillImage" />
        <cc:license
           rdf:resource="http://creativecommons.org/licenses/publicdomain/" />
        <dc:publisher>
          <cc:Agent
             rdf:about="http://openclipart.org/">
            <dc:title>Openclipart</dc:title>
          </cc:Agent>
        </dc:publisher>
        <dc:title />
        <dc:date>2012-10-21T19:16:07</dc:date>
        <dc:description>Zodiac signs.</dc:description>
        <dc:source>http://openclipart.org/detail/172841/zodiac-signs-by-nesh-172841</dc:source>
        <dc:creator>
          <cc:Agent>
            <dc:title>Nesh</dc:title>
          </cc:Agent>
        </dc:creator>
        <dc:subject>
          <rdf:Bag>
            <rdf:li>astrology</rdf:li>
            <rdf:li>clip art</rdf:li>
            <rdf:li>clipart</rdf:li>
            <rdf:li>signs</rdf:li>
            <rdf:li>spirituality</rdf:li>
            <rdf:li>zodiac</rdf:li>
          </rdf:Bag>
        </dc:subject>
      </cc:Work>
      <cc:License
         rdf:about="http://creativecommons.org/licenses/publicdomain/">
        <cc:permits
           rdf:resource="http://creativecommons.org/ns#Reproduction" />
        <cc:permits
           rdf:resource="http://creativecommons.org/ns#Distribution" />
        <cc:permits
           rdf:resource="http://creativecommons.org/ns#DerivativeWorks" />
      </cc:License>
    </rdf:RDF>
  </metadata>
</svg>
