<?xml version="1.0" encoding="UTF-8" standalone="no"?>
<!-- Created with Inkscape (http://www.inkscape.org/) -->

<svg
   xmlns:dc="http://purl.org/dc/elements/1.1/"
   xmlns:cc="http://creativecommons.org/ns#"
   xmlns:rdf="http://www.w3.org/1999/02/22-rdf-syntax-ns#"
   xmlns:svg="http://www.w3.org/2000/svg"
   xmlns="http://www.w3.org/2000/svg"
   version="1.1"
   width="100%"
   height="100%"
   viewBox="0 0 86.377098 76.416699"
   id="svg2">
  <defs
     id="defs20" />
  <path
     d="m 10.786093,23.8254 c -2e-5,1.7579 0.52895,3.4668 1.5869,5.127 1.0579,1.6602 2.417,3.0192 4.0772,4.0772 1.6601,1.058 3.3691,1.587 5.127,1.5869 1.8229,4e-5 3.5563,-0.52893 5.2002,-1.5869 1.6438,-1.0579 2.9866,-2.4251 4.0283,-4.1016 1.0416,-1.6764 1.5625,-3.3772 1.5625,-5.1025 -4e-5,-1.7903 -0.52087,-3.5156 -1.5625,-5.1758 -1.0417,-1.6601 -2.3926,-3.011 -4.0527,-4.0527 -1.6602,-1.0416 -3.3854,-1.5624 -5.1758,-1.5625 -1.7253,6.1e-5 -3.4261,0.52089 -5.1025,1.5625 -1.6765,1.0417 -3.0436,2.3845 -4.1016,4.0283 -1.058,1.6439 -1.5869,3.3773 -1.5869,5.2002 z m 64.795,28.809 c -8e-5,-1.7578 -0.52091,-3.4749 -1.5625,-5.1514 -1.0417,-1.6764 -2.3845,-3.0436 -4.0283,-4.1016 -1.644,-1.0579 -3.3774,-1.5869 -5.2002,-1.5869 -1.823,3e-5 -3.5564,0.529 -5.2002,1.5869 -1.6439,1.058 -2.9867,2.4252 -4.0283,4.1016 -1.0417,1.6764 -1.5626,3.3936 -1.5625,5.1514 -6e-5,1.7253 0.52077,3.4261 1.5625,5.1025 1.0416,1.6764 2.3844,3.0436 4.0283,4.1016 1.6438,1.058 3.3772,1.5869 5.2002,1.5869 1.8228,10e-6 3.5562,-0.52896 5.2002,-1.5869 1.6438,-1.0579 2.9866,-2.4251 4.0283,-4.1016 1.0416,-1.6764 1.5624,-3.3773 1.5625,-5.1025 z m -37.3,-41.501 c 3.2877,3.8738 4.9316,8.1055 4.9316,12.695 -5e-5,2.6042 -0.59413,5.1921 -1.7822,7.7637 -1.1882,2.5716 -2.8402,4.9154 -4.9561,7.0312 -2.1159,2.1159 -4.4678,3.7761 -7.0557,4.9805 -2.5879,1.2045 -5.2002,1.8067 -7.8369,1.8066 -3.7435,3e-5 -7.2673,-1.0335 -10.571,-3.1006 C 7.7067933,40.2428 5.0455933,37.5328 3.0273933,34.1799 1.0091933,30.8271 -6.7050985e-6,27.3766 -6.7050985e-6,23.8279 -6.7050985e-6,16.9595 2.9784933,11.2959 8.9355933,6.8359 14.892593,2.3763 26.318593,0.0977 43.212593,0 c 6.9986,7.5e-5 13.143,0.55346 18.433,1.6602 5.2896,1.1068 9.9527,2.7182 13.989,4.834 4.0364,2.116 7.6171,4.6876 10.742,7.7148 V 25 c -2.3764,-2.246 -4.8748,-4.2236 -7.4951,-5.9326 -2.6205,-1.7089 -5.5258,-3.1819 -8.7158,-4.4189 -3.1902,-1.2369 -6.7546,-2.1809 -10.693,-2.832 -3.9389,-0.65098 -8.3659,-0.9765 -13.281,-0.97656 -2.4414,6.4e-5 -5.0782,0.09772 -7.9102,0.29297 z m 48.096,41.504 c -9e-5,3.0925 -0.54534,5.9896 -1.6357,8.6914 -1.0906,2.7018 -3.1414,5.1758 -6.1524,7.4219 -3.0112,2.2461 -7.4057,4.0772 -13.184,5.4932 -5.7781,1.416 -13.176,2.1403 -22.192,2.1728 -5.2409,0 -10.067,-0.33366 -14.478,-1.001 -4.4108,-0.66732 -8.309,-1.595 -11.694,-2.7832 -3.3854,-1.1882 -6.4616,-2.6367 -9.2284997,-4.3457 -2.7669,-1.709 -5.3711,-3.7354 -7.8125000050985,-6.0791 V 51.4167 C 3.0923933,54.3464 6.5185933,56.8611 10.277993,58.9606 c 3.7597,2.0996 8.1054,3.7354 13.037,4.9072 4.9316,1.1719 10.555,1.7578 16.87,1.7578 2.4739,10e-6 5.1106,-0.0976 7.9102,-0.29297 -1.4974,-1.8229 -2.6856,-3.8493 -3.5645,-6.0791 -0.87895,-2.2298 -1.3184,-4.4352 -1.3184,-6.6162 -5e-5,-2.6367 0.60216,-5.2571 1.8066,-7.8613 1.2044,-2.6041 2.8482,-4.9479 4.9316,-7.0312 2.0833,-2.0833 4.427,-3.7272 7.0312,-4.9316 2.6041,-1.2044 5.2083,-1.8066 7.8125,-1.8066 2.7668,5e-5 5.485,0.60226 8.1543,1.8066 2.6692,1.2045 5.0048,2.8321 7.0068,4.8828 2.0019,2.0508 3.5725,4.3864 4.7119,7.0068 1.1392,2.6205 1.7089,5.2653 1.709,7.9346 z"
     id="path3082" />
  <metadata
     id="metadata16">
    <rdf:RDF>
      <cc:Work>
        <dc:format>image/svg+xml</dc:format>
        <dc:type
           rdf:resource="http://purl.org/dc/dcmitype/StillImage" />
        <cc:license
           rdf:resource="http://creativecommons.org/licenses/publicdomain/" />
        <dc:publisher>
          <cc:Agent
             rdf:about="http://openclipart.org/">
            <dc:title>Openclipart</dc:title>
          </cc:Agent>
        </dc:publisher>
        <dc:title></dc:title>
        <dc:date>2012-10-21T19:16:07</dc:date>
        <dc:description>Zodiac signs.</dc:description>
        <dc:source>http://openclipart.org/detail/172841/zodiac-signs-by-nesh-172841</dc:source>
        <dc:creator>
          <cc:Agent>
            <dc:title>Nesh</dc:title>
          </cc:Agent>
        </dc:creator>
        <dc:subject>
          <rdf:Bag>
            <rdf:li>astrology</rdf:li>
            <rdf:li>clip art</rdf:li>
            <rdf:li>clipart</rdf:li>
            <rdf:li>signs</rdf:li>
            <rdf:li>spirituality</rdf:li>
            <rdf:li>zodiac</rdf:li>
          </rdf:Bag>
        </dc:subject>
      </cc:Work>
      <cc:License
         rdf:about="http://creativecommons.org/licenses/publicdomain/">
        <cc:permits
           rdf:resource="http://creativecommons.org/ns#Reproduction" />
        <cc:permits
           rdf:resource="http://creativecommons.org/ns#Distribution" />
        <cc:permits
           rdf:resource="http://creativecommons.org/ns#DerivativeWorks" />
      </cc:License>
    </rdf:RDF>
  </metadata>
</svg>
