<?xml version="1.0" encoding="UTF-8" standalone="no"?>
<!-- Created with Inkscape (http://www.inkscape.org/) -->

<svg
   xmlns:dc="http://purl.org/dc/elements/1.1/"
   xmlns:cc="http://creativecommons.org/ns#"
   xmlns:rdf="http://www.w3.org/1999/02/22-rdf-syntax-ns#"
   xmlns:svg="http://www.w3.org/2000/svg"
   xmlns="http://www.w3.org/2000/svg"
   xmlns:sodipodi="http://sodipodi.sourceforge.net/DTD/sodipodi-0.dtd"
   xmlns:inkscape="http://www.inkscape.org/namespaces/inkscape"
   version="1.1"
   width="100%"
   height="100%"
   viewBox="0 0 95.215098 95.410098"
   id="svg2"
   inkscape:version="0.48.3.1 r9886"
   sodipodi:docname="capricorn.svg">
  <sodipodi:namedview
     pagecolor="#ffffff"
     bordercolor="#666666"
     borderopacity="1"
     objecttolerance="10"
     gridtolerance="10"
     guidetolerance="10"
     inkscape:pageopacity="0"
     inkscape:pageshadow="2"
     inkscape:window-width="1560"
     inkscape:window-height="837"
     id="namedview8"
     showgrid="false"
     borderlayer="true"
     fit-margin-top="0"
     fit-margin-left="0"
     fit-margin-right="0"
     fit-margin-bottom="0"
     inkscape:zoom="6.9384689"
     inkscape:cx="47.607549"
     inkscape:cy="47.705049"
     inkscape:window-x="0"
     inkscape:window-y="31"
     inkscape:window-maximized="0"
     inkscape:current-layer="svg2" />
  <defs
     id="defs20" />
  <path
     d="m 74.805093,27.6856 c 1.2694,-0.19525 2.4495,-0.69167 3.54,-1.4893 1.0904,-0.79746 1.9693,-1.8147 2.6367,-3.0518 0.66723,-1.2369 1.0009,-2.4902 1.001,-3.7598 -9e-5,-1.4322 -0.39885,-2.7913 -1.1963,-4.0772 -0.79761,-1.2857 -1.8393,-2.3274 -3.125,-3.125 -1.2859,-0.79745 -2.6449,-1.1962 -4.0772,-1.1963 -2.0509,8e-5 -3.9633,0.9034 -5.7373,2.71 -1.7742,1.8067 -2.6612,3.768 -2.6611,5.8838 -8e-5,1.9206 0.71607,3.6784 2.1484,5.2734 1.4322,1.5951 3.1249,2.5391 5.0781,2.832 z m -8.1055,10.791 h -5.5176 l -23.389,54.492 h -10.791 L -6.7050984e-6,17.3826 H 11.571993 l 20.801,59.619 20.801,-49.316 h 3.125 c -1.2696,-2.6041 -1.9044,-5.3059 -1.9043,-8.1055 -6e-5,-3.4179 0.9114,-6.6406 2.7344,-9.668 1.8228,-3.0273 4.2642,-5.4361 7.3242,-7.2266 3.0598,-1.7903 6.3476,-2.6855 9.8633,-2.6855 3.3202,8e-5 6.4208,0.87899 9.3018,2.6367 2.8808,1.7579 5.1676,4.1342 6.8604,7.1289 1.6926,2.9949 2.539,6.2012 2.5391,9.6191 -1e-4,2.7019 -0.54535,5.2491 -1.6358,7.6416 -1.0906,2.3926 -2.6205,4.4922 -4.5898,6.2988 -1.9695,1.8067 -4.1423,3.1332 -6.5186,3.9795 2.3762,1.9532 4.3456,4.0202 5.9082,6.2012 1.5624,2.181 3.2388,4.9154 5.0293,8.2031 1.2694,2.3763 2.2541,4.8747 2.9541,7.4951 0.69977,2.6205 1.0497,5.249 1.0498,7.8857 -10e-5,5.0781 -1.3429,9.7819 -4.0283,14.111 -2.6856,4.3294 -6.7953,7.7799 -12.329,10.352 -5.5339,2.5716 -12.288,3.8574 -20.264,3.8574 v -10.303 c 5.4361,-0.0325 10.034,-0.83822 13.794,-2.417 3.7597,-1.5788 6.5673,-3.7354 8.4229,-6.4697 1.8554,-2.7344 2.7831,-5.8431 2.7832,-9.3262 -9e-5,-4.7851 -1.6277,-9.847 -4.8828,-15.186 -1.6602,-2.6692 -3.3204,-4.8909 -4.9805,-6.665 -1.6602,-1.774 -4.004,-3.9632 -7.0312,-6.5674 z"
     id="path3052"
     inkscape:connector-curvature="0" />
  <metadata
     id="metadata16">
    <rdf:RDF>
      <cc:Work>
        <dc:format>image/svg+xml</dc:format>
        <dc:type
           rdf:resource="http://purl.org/dc/dcmitype/StillImage" />
        <cc:license
           rdf:resource="http://creativecommons.org/licenses/publicdomain/" />
        <dc:publisher>
          <cc:Agent
             rdf:about="http://openclipart.org/">
            <dc:title>Openclipart</dc:title>
          </cc:Agent>
        </dc:publisher>
        <dc:title />
        <dc:date>2012-10-21T19:16:07</dc:date>
        <dc:description>Zodiac signs.</dc:description>
        <dc:source>http://openclipart.org/detail/172841/zodiac-signs-by-nesh-172841</dc:source>
        <dc:creator>
          <cc:Agent>
            <dc:title>Nesh</dc:title>
          </cc:Agent>
        </dc:creator>
        <dc:subject>
          <rdf:Bag>
            <rdf:li>astrology</rdf:li>
            <rdf:li>clip art</rdf:li>
            <rdf:li>clipart</rdf:li>
            <rdf:li>signs</rdf:li>
            <rdf:li>spirituality</rdf:li>
            <rdf:li>zodiac</rdf:li>
          </rdf:Bag>
        </dc:subject>
      </cc:Work>
      <cc:License
         rdf:about="http://creativecommons.org/licenses/publicdomain/">
        <cc:permits
           rdf:resource="http://creativecommons.org/ns#Reproduction" />
        <cc:permits
           rdf:resource="http://creativecommons.org/ns#Distribution" />
        <cc:permits
           rdf:resource="http://creativecommons.org/ns#DerivativeWorks" />
      </cc:License>
    </rdf:RDF>
  </metadata>
</svg>
