<?xml version="1.0" encoding="UTF-8" standalone="no"?>
<!-- Created with Inkscape (http://www.inkscape.org/) -->

<svg
   xmlns:dc="http://purl.org/dc/elements/1.1/"
   xmlns:cc="http://creativecommons.org/ns#"
   xmlns:rdf="http://www.w3.org/1999/02/22-rdf-syntax-ns#"
   xmlns:svg="http://www.w3.org/2000/svg"
   xmlns="http://www.w3.org/2000/svg"
   xmlns:sodipodi="http://sodipodi.sourceforge.net/DTD/sodipodi-0.dtd"
   xmlns:inkscape="http://www.inkscape.org/namespaces/inkscape"
   version="1.1"
   width="100%"
   height="100%"
   viewBox="0 0 86.181938 104.10137"
   id="svg2"
   inkscape:version="0.48.3.1 r9886"
   sodipodi:docname="leo.svg">
  <sodipodi:namedview
     pagecolor="#ffffff"
     bordercolor="#666666"
     borderopacity="1"
     objecttolerance="10"
     gridtolerance="10"
     guidetolerance="10"
     inkscape:pageopacity="0"
     inkscape:pageshadow="2"
     inkscape:window-width="922"
     inkscape:window-height="695"
     id="namedview13"
     showgrid="false"
     fit-margin-top="0"
     fit-margin-left="0"
     fit-margin-right="0"
     fit-margin-bottom="0"
     borderlayer="true"
     inkscape:zoom="4.9951312"
     inkscape:cx="43.090969"
     inkscape:cy="52.050685"
     inkscape:window-x="0"
     inkscape:window-y="31"
     inkscape:window-maximized="0"
     inkscape:current-layer="svg2" />
  <defs
     id="defs20" />
  <path
     d="m 19.189293,56.20196 c -1.8229,2e-5 -3.5889,0.53713 -5.2978,1.6113 -1.709,1.0742 -3.0843,2.4577 -4.1259997,4.1504 -1.0417,1.6927 -1.5625,3.4343 -1.5625,5.2246 -10e-6,1.8229 0.52082,3.5807 1.5625,5.2734 1.0415997,1.6927 2.4169997,3.0762 4.1259997,4.1504 1.709,1.0742 3.4749,1.6113 5.2978,1.6113 1.8229,1e-5 3.5888,-0.5371 5.2978,-1.6113 1.709,-1.0742 3.0843,-2.4577 4.126,-4.1504 1.0416,-1.6927 1.5625,-3.4505 1.5625,-5.2734 -4e-5,-1.7904 -0.52087,-3.5319 -1.5625,-5.2246 -1.0417,-1.6927 -2.417,-3.0762 -4.126,-4.1504 -1.709,-1.0742 -3.475,-1.6113 -5.2978,-1.6113 z m 19.385,10.986 c -5e-5,2.5716 -0.5046,5.013 -1.5137,7.3242 -1.0092,2.3112 -2.4008,4.3538 -4.1748,6.1279 -1.7741,1.7741 -3.8412,3.1738 -6.2012,4.1992 -2.3601,1.0254 -4.8584,1.5381 -7.4951,1.5381 -3.3854,0 -6.5593,-0.87077 -9.5214997,-2.6123 -2.9623,-1.7415 -5.3141,-4.0934 -7.0557,-7.0557 C 0.8707933,73.74716 -6.7049588e-6,70.57326 -6.7049588e-6,67.18786 -1.6704959e-5,64.58366 0.5370933,62.10166 1.6112933,59.74156 c 1.0742,-2.36 2.5472,-4.4352 4.4189,-6.2256 1.8717,-1.7903 3.9875997,-3.1901 6.3476997,-4.1992 2.36,-1.0091 4.8584,-1.5136 7.4951,-1.5137 1.6927,3e-5 3.304,0.19535 4.834,0.58594 -1.2696,-2.6367 -2.2705,-4.72 -3.0029,-6.25 -0.73245,-1.5299 -1.5869,-3.3854 -2.5635,-5.5664 -0.97658,-2.1809 -1.7416,-4.2236 -2.2949,-6.1279 -0.55341,-1.9042 -0.8301,-3.5888 -0.83008,-5.0537 -2e-5,-0.35802 0.0651,-1.0253 0.19532,-2.002 C 18.977833,7.797 27.978933,0 43.212933,0 c 5.5664,8e-5 10.49,0.29305 14.771,0.8789 4.2805,0.58602 8.1542,1.7904 11.621,3.6133 3.4667,1.823 6.2336,4.6062 8.3008,8.3496 2.067,3.7436 3.1005,8.6589 3.1006,14.746 -0.1303,5.7943 -0.97665,10.848 -2.5391,15.161 -1.5626,4.3132 -3.4832,8.2683 -5.7617,11.865 -2.2787,3.597 -4.6469,7.4056 -7.1045,11.426 -2.4578,4.0202 -4.126,7.8695 -5.0049,11.548 -1.0092,4.2643 -1.5137,7.5358 -1.5137,9.8144 -7e-5,3.2878 1.0416,5.3548 3.125,6.2012 1.6275,0.65103 3.1249,0.97655 4.4922,0.97657 1.2044,-2e-5 2.3193,-0.22788 3.3447,-0.6836 1.0253,-0.45574 2.0914,-1.1475 3.1982,-2.0752 1.1067,-0.92775 2.1646,-1.9206 3.1738,-2.9785 1.009,-1.058 2.0995,-2.2054 3.2715,-3.4424 l 6.4941,7.1777 c -3.9389,4.1341 -7.544,7.0882 -10.815,8.8623 -3.2716,1.7741 -6.421,2.6611 -9.4482,2.6611 -2.5391,-2e-5 -5.1108,-0.53713 -7.7148,-1.6113 -6.0873,-2.3112 -9.1309,-7.5033 -9.1309,-15.576 -5e-5,-3.4505 0.63471,-7.6497 1.9043,-12.598 0.81375,-3.125 1.9693,-6.1035 3.4668,-8.9355 1.4973,-2.832 3.8167,-6.9173 6.958,-12.256 3.1412,-5.3385 5.4524,-9.6679 6.9336,-12.988 1.481,-3.3203 2.303,-6.4941 2.4658,-9.5215 0.065,-0.68354 0.0976,-1.6927 0.0977,-3.0273 -8e-5,-5.013 -1.0011,-8.7483 -3.0029,-11.206 -2.002,-2.4576 -4.8585,-4.0771 -8.5693,-4.8584 -3.711,-0.78119 -9.0821,-1.3508 -16.113,-1.709 -3.7761,7e-5 -6.8441,0.56973 -9.2041,1.709 -2.3601,1.1394 -4.126,2.7507 -5.2978,4.834 -1.1719,2.0834 -1.9369,4.6387 -2.2949,7.666 -3e-5,2.3112 0.47198,4.7526 1.416,7.3242 0.94398,2.5717 2.4251,6.1117 4.4434,10.62 2.0182,4.5085 3.5888,8.545 4.7119,12.109 1.123,3.5645 1.6845,7.0068 1.6846,10.327 -4e-5,1.2696 -0.0326,2.1973 -0.0977,2.7832 z"
     id="path3073"
     inkscape:connector-curvature="0" />
  <metadata
     id="metadata16">
    <rdf:RDF>
      <cc:Work>
        <dc:format>image/svg+xml</dc:format>
        <dc:type
           rdf:resource="http://purl.org/dc/dcmitype/StillImage" />
        <cc:license
           rdf:resource="http://creativecommons.org/licenses/publicdomain/" />
        <dc:publisher>
          <cc:Agent
             rdf:about="http://openclipart.org/">
            <dc:title>Openclipart</dc:title>
          </cc:Agent>
        </dc:publisher>
        <dc:title />
        <dc:date>2012-10-21T19:16:07</dc:date>
        <dc:description>Zodiac signs.</dc:description>
        <dc:source>http://openclipart.org/detail/172841/zodiac-signs-by-nesh-172841</dc:source>
        <dc:creator>
          <cc:Agent>
            <dc:title>Nesh</dc:title>
          </cc:Agent>
        </dc:creator>
        <dc:subject>
          <rdf:Bag>
            <rdf:li>astrology</rdf:li>
            <rdf:li>clip art</rdf:li>
            <rdf:li>clipart</rdf:li>
            <rdf:li>signs</rdf:li>
            <rdf:li>spirituality</rdf:li>
            <rdf:li>zodiac</rdf:li>
          </rdf:Bag>
        </dc:subject>
      </cc:Work>
      <cc:License
         rdf:about="http://creativecommons.org/licenses/publicdomain/">
        <cc:permits
           rdf:resource="http://creativecommons.org/ns#Reproduction" />
        <cc:permits
           rdf:resource="http://creativecommons.org/ns#Distribution" />
        <cc:permits
           rdf:resource="http://creativecommons.org/ns#DerivativeWorks" />
      </cc:License>
    </rdf:RDF>
  </metadata>
</svg>
