<?xml version="1.0" encoding="UTF-8" standalone="no"?>
<!-- Created with Inkscape (http://www.inkscape.org/) -->

<svg
   xmlns:dc="http://purl.org/dc/elements/1.1/"
   xmlns:cc="http://creativecommons.org/ns#"
   xmlns:rdf="http://www.w3.org/1999/02/22-rdf-syntax-ns#"
   xmlns:svg="http://www.w3.org/2000/svg"
   xmlns="http://www.w3.org/2000/svg"
   xmlns:sodipodi="http://sodipodi.sourceforge.net/DTD/sodipodi-0.dtd"
   xmlns:inkscape="http://www.inkscape.org/namespaces/inkscape"
   version="1.1"
   width="100%"
   height="100%"
   viewBox="0 0 86.376998 53.613899"
   id="svg2"
   inkscape:version="0.48.3.1 r9886"
   sodipodi:docname="libra.svg">
  <sodipodi:namedview
     pagecolor="#ffffff"
     bordercolor="#666666"
     borderopacity="1"
     objecttolerance="10"
     gridtolerance="10"
     guidetolerance="10"
     inkscape:pageopacity="0"
     inkscape:pageshadow="2"
     inkscape:window-width="1026"
     inkscape:window-height="736"
     id="namedview11"
     showgrid="false"
     fit-margin-top="0"
     fit-margin-left="0"
     fit-margin-right="0"
     fit-margin-bottom="0"
     borderlayer="true"
     inkscape:zoom="10.002663"
     inkscape:cx="43.188499"
     inkscape:cy="26.806949"
     inkscape:window-x="0"
     inkscape:window-y="31"
     inkscape:window-maximized="0"
     inkscape:current-layer="svg2" />
  <defs
     id="defs20" />
  <path
     d="M -6.7050985e-6,43.3109 H 86.376993 v 10.303 H -6.7050985e-6 z M 32.372993,32.4709 H -6.7050985e-6 V 21.5819 H 21.581993 c -3e-5,-2.6367 0.60218,-5.249 1.8066,-7.8369 1.2044,-2.5878 2.8483,-4.9234 4.9316,-7.0068 2.0833,-2.0833 4.427,-3.7272 7.0312,-4.9316 2.6041,-1.2044 5.2246,-1.8066 7.8613,-1.8066 2.6367,6e-5 5.2734,0.61041 7.9102,1.831 2.6367,1.2208 4.9641,2.8402 6.9824,4.8584 2.0182,2.0183 3.6376,4.3458 4.8584,6.9824 1.2206,2.6368 1.831,5.2735 1.8311,7.9102 h 21.582 v 10.889 h -32.373 V 21.582 c -6e-5,-1.7578 -0.52903,-3.4668 -1.5869,-5.127 -1.058,-1.6601 -2.417,-3.0192 -4.0772,-4.0771 -1.6602,-1.0579 -3.3692,-1.5869 -5.127,-1.5869 -1.7904,6e-5 -3.5157,0.52903 -5.1758,1.5869 -1.6602,1.058 -3.0192,2.417 -4.0772,4.0771 -1.058,1.6602 -1.587,3.3692 -1.5869,5.127 z"
     id="path3058"
     inkscape:connector-curvature="0" />
  <metadata
     id="metadata16">
    <rdf:RDF>
      <cc:Work>
        <dc:format>image/svg+xml</dc:format>
        <dc:type
           rdf:resource="http://purl.org/dc/dcmitype/StillImage" />
        <cc:license
           rdf:resource="http://creativecommons.org/licenses/publicdomain/" />
        <dc:publisher>
          <cc:Agent
             rdf:about="http://openclipart.org/">
            <dc:title>Openclipart</dc:title>
          </cc:Agent>
        </dc:publisher>
        <dc:title />
        <dc:date>2012-10-21T19:16:07</dc:date>
        <dc:description>Zodiac signs.</dc:description>
        <dc:source>http://openclipart.org/detail/172841/zodiac-signs-by-nesh-172841</dc:source>
        <dc:creator>
          <cc:Agent>
            <dc:title>Nesh</dc:title>
          </cc:Agent>
        </dc:creator>
        <dc:subject>
          <rdf:Bag>
            <rdf:li>astrology</rdf:li>
            <rdf:li>clip art</rdf:li>
            <rdf:li>clipart</rdf:li>
            <rdf:li>signs</rdf:li>
            <rdf:li>spirituality</rdf:li>
            <rdf:li>zodiac</rdf:li>
          </rdf:Bag>
        </dc:subject>
      </cc:Work>
      <cc:License
         rdf:about="http://creativecommons.org/licenses/publicdomain/">
        <cc:permits
           rdf:resource="http://creativecommons.org/ns#Reproduction" />
        <cc:permits
           rdf:resource="http://creativecommons.org/ns#Distribution" />
        <cc:permits
           rdf:resource="http://creativecommons.org/ns#DerivativeWorks" />
      </cc:License>
    </rdf:RDF>
  </metadata>
</svg>
