<?xml version="1.0" encoding="UTF-8" standalone="no"?>
<svg
   xmlns:dc="http://purl.org/dc/elements/1.1/"
   xmlns:cc="http://creativecommons.org/ns#"
   xmlns:rdf="http://www.w3.org/1999/02/22-rdf-syntax-ns#"
   xmlns:svg="http://www.w3.org/2000/svg"
   xmlns="http://www.w3.org/2000/svg"
   xmlns:sodipodi="http://sodipodi.sourceforge.net/DTD/sodipodi-0.dtd"
   xmlns:inkscape="http://www.inkscape.org/namespaces/inkscape"
   id="svg2"
   viewBox="0 0 80.614798 86.376998"
   version="1.1"
   inkscape:version="0.48.3.1 r9886"
   width="100%"
   height="100%"
   sodipodi:docname="pisces.svg">
  <defs
     id="defs20" />
  <sodipodi:namedview
     pagecolor="#ffffff"
     bordercolor="#666666"
     borderopacity="1"
     objecttolerance="10"
     gridtolerance="10"
     guidetolerance="10"
     inkscape:pageopacity="0"
     inkscape:pageshadow="2"
     inkscape:window-width="1718"
     inkscape:window-height="846"
     id="namedview18"
     showgrid="false"
     inkscape:zoom="7.7682718"
     inkscape:cx="40.307399"
     inkscape:cy="43.188499"
     inkscape:window-x="97"
     inkscape:window-y="111"
     inkscape:window-maximized="0"
     inkscape:current-layer="svg2"
     fit-margin-top="0"
     fit-margin-left="0"
     fit-margin-right="0"
     fit-margin-bottom="0"
     borderlayer="true" />
  <path
     inkscape:connector-curvature="0"
     d="m 48.193093,37.306 c 0.13016,-4.3619 0.61844,-8.2519 1.4648,-11.67 0.8463,-3.4179 2.0589,-6.5755 3.6377,-9.4726 1.5787,-2.8971 3.54,-5.607 5.8838,-8.1299 2.3437,-2.5227 5.2408,-5.2001 8.6914,-8.0322 h 12.744 c -3.5808,2.9949 -6.5919,5.7292 -9.0332,8.2031 -2.4415,2.474 -4.5574,5.1352 -6.3477,7.9834 -1.7904,2.8484 -3.2064,5.9571 -4.248,9.3262 -1.0417,3.3692 -1.709,7.2998 -2.002,11.792 h 18.018 v 11.279 h -18.018 c 0.2929,5.7292 1.302,10.75 3.0273,15.063 1.7252,4.3132 4.0934,8.2113 7.1045,11.694 3.011,3.4831 6.844,7.1615 11.499,11.035 h -12.744 c -4.5248,-3.776 -8.1788,-7.4056 -10.962,-10.889 -2.7833,-3.4831 -4.8991,-7.3649 -6.3476,-11.646 -1.4486,-4.2806 -2.238,-9.3668 -2.3682,-15.259 h -15.82 c -0.13025,5.892 -0.91963,10.978 -2.3682,15.259 -1.4486,4.2806 -3.5645,8.1624 -6.3477,11.646 -2.7832,3.4831 -6.4372,7.1126 -10.962,10.889 H -6.7050984e-6 C 4.8176933,82.3731 8.7076933,78.6622 11.669993,75.244 c 2.9622,-3.418 5.2978,-7.2672 7.0068,-11.548 1.709,-4.2806 2.6774,-9.318 2.9053,-15.112 H 3.6130933 V 37.305 H 21.582093 c -0.32555,-5.7617 -1.3347,-10.734 -3.0274,-14.917 -1.6927,-4.1829 -4.0365,-7.9996 -7.0312,-11.45 C 8.5286933,7.4876 4.6874933,3.8417 4.932949e-4,0 H 12.695493 c 3.4505,2.8321 6.3558,5.5176 8.7158,8.0566 2.36,2.5391 4.3212,5.241 5.8838,8.1055 1.5625,2.8646 2.7669,6.014 3.6133,9.4482 0.84631,3.4343 1.3346,7.3324 1.4648,11.694 z"
     id="path3049" />
  <metadata
     id="metadata16">
    <rdf:RDF>
      <cc:Work>
        <dc:format>image/svg+xml</dc:format>
        <dc:type
           rdf:resource="http://purl.org/dc/dcmitype/StillImage" />
        <cc:license
           rdf:resource="http://creativecommons.org/licenses/publicdomain/" />
        <dc:publisher>
          <cc:Agent
             rdf:about="http://openclipart.org/">
            <dc:title>Openclipart</dc:title>
          </cc:Agent>
        </dc:publisher>
        <dc:title></dc:title>
        <dc:date>2012-10-21T19:16:07</dc:date>
        <dc:description>Zodiac signs.</dc:description>
        <dc:source>http://openclipart.org/detail/172841/zodiac-signs-by-nesh-172841</dc:source>
        <dc:creator>
          <cc:Agent>
            <dc:title>Nesh</dc:title>
          </cc:Agent>
        </dc:creator>
        <dc:subject>
          <rdf:Bag>
            <rdf:li>astrology</rdf:li>
            <rdf:li>clip art</rdf:li>
            <rdf:li>clipart</rdf:li>
            <rdf:li>signs</rdf:li>
            <rdf:li>spirituality</rdf:li>
            <rdf:li>zodiac</rdf:li>
          </rdf:Bag>
        </dc:subject>
      </cc:Work>
      <cc:License
         rdf:about="http://creativecommons.org/licenses/publicdomain/">
        <cc:permits
           rdf:resource="http://creativecommons.org/ns#Reproduction" />
        <cc:permits
           rdf:resource="http://creativecommons.org/ns#Distribution" />
        <cc:permits
           rdf:resource="http://creativecommons.org/ns#DerivativeWorks" />
      </cc:License>
    </rdf:RDF>
  </metadata>
</svg>
