<?xml version="1.0" encoding="UTF-8" standalone="no"?>
<!-- Created with Inkscape (http://www.inkscape.org/) -->

<svg
   xmlns:dc="http://purl.org/dc/elements/1.1/"
   xmlns:cc="http://creativecommons.org/ns#"
   xmlns:rdf="http://www.w3.org/1999/02/22-rdf-syntax-ns#"
   xmlns:svg="http://www.w3.org/2000/svg"
   xmlns="http://www.w3.org/2000/svg"
   xmlns:sodipodi="http://sodipodi.sourceforge.net/DTD/sodipodi-0.dtd"
   xmlns:inkscape="http://www.inkscape.org/namespaces/inkscape"
   version="1.1"
   width="100%"
   height="100%"
   viewBox="0 0 88.183698 104.3936"
   id="svg2"
   inkscape:version="0.48.3.1 r9886"
   sodipodi:docname="scorpio.svg">
  <sodipodi:namedview
     pagecolor="#ffffff"
     bordercolor="#666666"
     borderopacity="1"
     objecttolerance="10"
     gridtolerance="10"
     guidetolerance="10"
     inkscape:pageopacity="0"
     inkscape:pageshadow="2"
     inkscape:window-width="1184"
     inkscape:window-height="671"
     id="namedview10"
     showgrid="false"
     borderlayer="true"
     fit-margin-top="0"
     fit-margin-left="0"
     fit-margin-right="0"
     fit-margin-bottom="0"
     inkscape:zoom="4.7512491"
     inkscape:cx="44.091849"
     inkscape:cy="52.1968"
     inkscape:window-x="0"
     inkscape:window-y="31"
     inkscape:window-maximized="0"
     inkscape:current-layer="svg2" />
  <defs
     id="defs20" />
  <path
     d="m 57.616593,21.5816 v 61.23 c -6e-5,7.194 2.1972,10.791 6.5918,10.791 2.4088,-2e-5 4.012,-1.0335 4.8096,-3.1006 0.79745,-2.0671 1.1962,-4.8096 1.1963,-8.2275 l -7.2266,4.3457 v -11.035 l 12.598,-7.666 12.598,9.082 v 9.6191 l -7.1777,-4.3457 c -9e-5,3.6458 -0.6674,7.1859 -2.002,10.62 -1.3347,3.4342 -3.2716,6.2093 -5.8106,8.3252 -2.5391,2.1159 -5.5339,3.1738 -8.9844,3.1738 -3.4506,-2e-5 -6.5024,-1.0254 -9.1553,-3.0762 -2.653,-2.0508 -4.6957,-4.7363 -6.1279,-8.0566 -1.4323,-3.3203 -2.1485,-6.8034 -2.1484,-10.449 v -61.23 c -6e-5,-4.3619 -0.56158,-7.2509 -1.6846,-8.667 -1.1231,-1.416 -2.5635,-2.124 -4.3213,-2.124 -2.7019,7e-5 -4.476,0.94408 -5.3223,2.832 -0.84639,1.8881 -1.2696,4.5411 -1.2695,7.959 v 64.795 h -10.791 v -64.795 c -3e-5,-4.3945 -0.56969,-7.2916 -1.709,-8.6914 -1.1394,-1.3997 -2.5716,-2.0995 -4.2969,-2.0996 -4.3946,7e-5 -6.5918,3.5971 -6.5918,10.791 v 64.795 H -6.7050984e-6 v -64.795 c 0,-3.6458 0.7161399950984,-7.1288 2.1484000050984,-10.449 1.43226,-3.3202 3.4668,-6.0058 6.1035,-8.0566 C 10.888593,1.0255 13.932193,10e-5 17.382693,0 c 4.7526,8e-5 8.5937,1.8718 11.523,5.6152 3.2552,-3.7434 7.2102,-5.6152 11.865,-5.6152 3.483,8e-5 6.486,1.0173 9.0088,3.0518 2.5227,2.0346 4.4596,4.7201 5.8105,8.0566 1.3508,3.3367 2.0263,6.8279 2.0264,10.474 z"
     id="path3064"
     inkscape:connector-curvature="0" />
  <metadata
     id="metadata16">
    <rdf:RDF>
      <cc:Work>
        <dc:format>image/svg+xml</dc:format>
        <dc:type
           rdf:resource="http://purl.org/dc/dcmitype/StillImage" />
        <cc:license
           rdf:resource="http://creativecommons.org/licenses/publicdomain/" />
        <dc:publisher>
          <cc:Agent
             rdf:about="http://openclipart.org/">
            <dc:title>Openclipart</dc:title>
          </cc:Agent>
        </dc:publisher>
        <dc:title />
        <dc:date>2012-10-21T19:16:07</dc:date>
        <dc:description>Zodiac signs.</dc:description>
        <dc:source>http://openclipart.org/detail/172841/zodiac-signs-by-nesh-172841</dc:source>
        <dc:creator>
          <cc:Agent>
            <dc:title>Nesh</dc:title>
          </cc:Agent>
        </dc:creator>
        <dc:subject>
          <rdf:Bag>
            <rdf:li>astrology</rdf:li>
            <rdf:li>clip art</rdf:li>
            <rdf:li>clipart</rdf:li>
            <rdf:li>signs</rdf:li>
            <rdf:li>spirituality</rdf:li>
            <rdf:li>zodiac</rdf:li>
          </rdf:Bag>
        </dc:subject>
      </cc:Work>
      <cc:License
         rdf:about="http://creativecommons.org/licenses/publicdomain/">
        <cc:permits
           rdf:resource="http://creativecommons.org/ns#Reproduction" />
        <cc:permits
           rdf:resource="http://creativecommons.org/ns#Distribution" />
        <cc:permits
           rdf:resource="http://creativecommons.org/ns#DerivativeWorks" />
      </cc:License>
    </rdf:RDF>
  </metadata>
</svg>
