<?xml version="1.0" encoding="UTF-8" standalone="no"?>
<!-- Created with Inkscape (http://www.inkscape.org/) -->

<svg
   xmlns:dc="http://purl.org/dc/elements/1.1/"
   xmlns:cc="http://creativecommons.org/ns#"
   xmlns:rdf="http://www.w3.org/1999/02/22-rdf-syntax-ns#"
   xmlns:svg="http://www.w3.org/2000/svg"
   xmlns="http://www.w3.org/2000/svg"
   version="1.1"
   width="100%"
   height="100%"
   viewBox="0 0 64.795299 86.376698"
   id="svg2">
  <defs
     id="defs20" />
  <path
     d="m 48.974793,27.0012 c 2.3111,1.53 4.4514,3.3285 6.4209,5.3955 1.9693,2.0671 3.6376,4.2562 5.0049,6.5674 1.3671,2.3112 2.4413,4.7364 3.2227,7.2754 0.78118,2.5391 1.1718,5.127 1.1719,7.7637 -7e-5,3.9063 -0.90339,7.8125 -2.71,11.719 -1.8067,3.9063 -4.2725,7.4219 -7.3975,10.547 -3.1251,3.125 -6.6407,5.5908 -10.547,7.3975 -3.9063,1.8066 -7.8288,2.71 -11.768,2.71 -3.8737,0 -7.7474,-0.89519 -11.621,-2.6855 -3.8737,-1.7904 -7.3975,-4.2562 -10.571,-7.3975 C 7.0068933,73.1524 4.5165933,69.6368 2.7099933,65.7467 0.90339329,61.8567 -6.7050984e-6,57.9424 -6.7050984e-6,54.0037 c 0,-3.4179 0.6673099950984,-6.8034 2.0020000050984,-10.156 1.3346,-3.3528 3.2064,-6.486 5.6152,-9.3994 2.4087997,-2.9134 5.1268997,-5.3955 8.1542997,-7.4463 -2.3438,-1.6276 -4.4515,-3.426 -6.3231997,-5.3955 -1.8718,-1.9693 -3.5238,-4.1422 -4.956,-6.5186 -1.4323,-2.3762 -2.5391,-4.8746 -3.3203,-7.4951 C 0.39073329,4.9724 9.3294902e-5,2.4415 9.3294902e-5,0 H 10.791093 c -2e-5,2.8972 0.9033,6.0548 2.71,9.4727 1.8066,3.418 4.3701,6.2908 7.6904,8.6182 3.3203,2.3275 7.0475,3.4913 11.182,3.4912 3.1901,5.7e-5 6.1198,-0.68354 8.7891,-2.0508 2.6692,-1.3671 4.9886,-3.1982 6.958,-5.4932 1.9693,-2.2949 3.4423,-4.6549 4.4189,-7.0801 0.97651,-2.4251 1.4648,-4.7444 1.4648,-6.958 h 10.791 c -7e-5,2.6042 -0.39069,5.1759 -1.1719,7.7148 -0.78132,2.5391 -1.8555,4.9643 -3.2227,7.2754 -1.3672,2.3113 -3.0274,4.4922 -4.9805,6.543 -1.9532,2.0508 -4.1016,3.8737 -6.4453,5.4687 z m -38.184,27.002 c -2e-5,2.6042 0.59406,5.1839 1.7822,7.7392 1.1881,2.5554 2.8564,4.9072 5.0049,7.0557 2.1484,2.1484 4.5003,3.8167 7.0557,5.0049 2.5553,1.1882 5.1351,1.7822 7.7393,1.7822 2.6367,0 5.2571,-0.60221 7.8613,-1.8066 2.6041,-1.2044 4.9479,-2.8483 7.0312,-4.9316 2.0833,-2.0833 3.7272,-4.4271 4.9316,-7.0312 1.2044,-2.6042 1.8066,-5.2083 1.8066,-7.8125 -6e-5,-2.181 -0.49648,-4.5166 -1.4893,-7.0068 -0.9929,-2.4902 -2.4496,-4.8584 -4.3701,-7.1045 -1.9206,-2.246 -4.2318,-4.0527 -6.9336,-5.4199 -2.7019,-1.3672 -5.6478,-2.0507 -8.8379,-2.0508 -4.1342,5e-5 -7.8614,1.1638 -11.182,3.4912 -3.3203,2.3275 -5.8838,5.2002 -7.6904,8.6182 -1.8067,3.418 -2.71,6.5756 -2.71,9.4727 z"
     id="path3079" />
  <metadata
     id="metadata16">
    <rdf:RDF>
      <cc:Work>
        <dc:format>image/svg+xml</dc:format>
        <dc:type
           rdf:resource="http://purl.org/dc/dcmitype/StillImage" />
        <cc:license
           rdf:resource="http://creativecommons.org/licenses/publicdomain/" />
        <dc:publisher>
          <cc:Agent
             rdf:about="http://openclipart.org/">
            <dc:title>Openclipart</dc:title>
          </cc:Agent>
        </dc:publisher>
        <dc:title></dc:title>
        <dc:date>2012-10-21T19:16:07</dc:date>
        <dc:description>Zodiac signs.</dc:description>
        <dc:source>http://openclipart.org/detail/172841/zodiac-signs-by-nesh-172841</dc:source>
        <dc:creator>
          <cc:Agent>
            <dc:title>Nesh</dc:title>
          </cc:Agent>
        </dc:creator>
        <dc:subject>
          <rdf:Bag>
            <rdf:li>astrology</rdf:li>
            <rdf:li>clip art</rdf:li>
            <rdf:li>clipart</rdf:li>
            <rdf:li>signs</rdf:li>
            <rdf:li>spirituality</rdf:li>
            <rdf:li>zodiac</rdf:li>
          </rdf:Bag>
        </dc:subject>
      </cc:Work>
      <cc:License
         rdf:about="http://creativecommons.org/licenses/publicdomain/">
        <cc:permits
           rdf:resource="http://creativecommons.org/ns#Reproduction" />
        <cc:permits
           rdf:resource="http://creativecommons.org/ns#Distribution" />
        <cc:permits
           rdf:resource="http://creativecommons.org/ns#DerivativeWorks" />
      </cc:License>
    </rdf:RDF>
  </metadata>
</svg>
