<?xml version="1.0" encoding="UTF-8" standalone="no"?>
<!-- Created with Inkscape (http://www.inkscape.org/) -->

<svg
   xmlns:dc="http://purl.org/dc/elements/1.1/"
   xmlns:cc="http://creativecommons.org/ns#"
   xmlns:rdf="http://www.w3.org/1999/02/22-rdf-syntax-ns#"
   xmlns:svg="http://www.w3.org/2000/svg"
   xmlns="http://www.w3.org/2000/svg"
   version="1.1"
   width="100%"
   height="100%"
   viewBox="0 0 81.004698 104.3946"
   id="svg2">
  <defs
     id="defs20" />
  <path
     d="m 64.013793,91.7966 c -2.7344,4.6875 -5.9083,8.8867 -9.5215,12.598 l -7.7148,-7.7148 c 4.427,-3.0599 8.3007,-8.252 11.621,-15.576 -3.418,-7.9427 -6.0303,-16.919 -7.8369,-26.929 -1.8067,-10.01 -3.0681,-20.874 -3.7842,-32.593 -5e-5,-4.3619 -0.56157,-7.2509 -1.6846,-8.667 -1.1231,-1.416 -2.5635,-2.124 -4.3213,-2.124 -2.767,7e-5 -4.5573,0.93594 -5.3711,2.8076 -0.81384,1.8718 -1.2207,4.5329 -1.2207,7.9834 v 64.795 h -10.791 v -64.795 c -3e-5,-4.3945 -0.56969,-7.2916 -1.709,-8.6914 -1.1394,-1.3997 -2.5716,-2.0995 -4.2969,-2.0996 -4.3946,7e-5 -6.5918,3.5971 -6.5918,10.791 v 64.795 H -6.7049937e-6 V 21.5818 C -1.6704994e-5,17.936 0.7161333,14.453 2.1483933,11.1328 3.5806533,7.8126 5.6151933,5.127 8.2518933,3.0762 10.888593,1.0255 13.932193,1e-4 17.382793,0 c 4.7526,8e-5 8.5937,1.8718 11.523,5.6152 3.2552,-3.7434 7.2102,-5.6152 11.865,-5.6152 4.7526,8e-5 8.5937,1.8718 11.523,5.6152 3.2552,-3.7434 7.2265,-5.6152 11.914,-5.6152 3.4504,8e-5 6.4534,1.0255 9.0088,3.0762 2.5553,2.0509 4.4921,4.7364 5.8106,8.0566 1.3183,3.3204 1.9774,6.8034 1.9775,10.449 -0.29306,5.306 -0.74065,10.612 -1.3428,15.918 -0.6023,5.306 -1.351,10.417 -2.2461,15.332 -0.89526,4.9154 -2.0183,9.7412 -3.3691,14.478 -1.351,4.7363 -2.9704,9.3343 -4.8584,13.794 3.5481,7.3568 7.4869,12.549 11.816,15.576 l -7.7148,7.7148 c -3.6785,-3.7761 -6.7709,-7.9753 -9.2774,-12.598 z m -0.19531,-25.879 c 1.1718,-4.362 2.1972,-8.9925 3.0762,-13.892 0.87883,-4.8991 1.5868,-9.8877 2.124,-14.966 0.53704,-5.0781 0.9358,-10.238 1.1963,-15.479 -7e-5,-3.3528 -0.39883,-5.9895 -1.1963,-7.9102 -0.7976,-1.9205 -2.4008,-2.8808 -4.8096,-2.8809 -2.767,7e-5 -4.5574,0.93594 -5.3711,2.8076 -0.81387,1.8718 -1.2208,4.5329 -1.2207,7.9834 0.81374,16.439 2.8808,31.217 6.2012,44.336 z"
     id="path3076" />
  <metadata
     id="metadata16">
    <rdf:RDF>
      <cc:Work>
        <dc:format>image/svg+xml</dc:format>
        <dc:type
           rdf:resource="http://purl.org/dc/dcmitype/StillImage" />
        <cc:license
           rdf:resource="http://creativecommons.org/licenses/publicdomain/" />
        <dc:publisher>
          <cc:Agent
             rdf:about="http://openclipart.org/">
            <dc:title>Openclipart</dc:title>
          </cc:Agent>
        </dc:publisher>
        <dc:title></dc:title>
        <dc:date>2012-10-21T19:16:07</dc:date>
        <dc:description>Zodiac signs.</dc:description>
        <dc:source>http://openclipart.org/detail/172841/zodiac-signs-by-nesh-172841</dc:source>
        <dc:creator>
          <cc:Agent>
            <dc:title>Nesh</dc:title>
          </cc:Agent>
        </dc:creator>
        <dc:subject>
          <rdf:Bag>
            <rdf:li>astrology</rdf:li>
            <rdf:li>clip art</rdf:li>
            <rdf:li>clipart</rdf:li>
            <rdf:li>signs</rdf:li>
            <rdf:li>spirituality</rdf:li>
            <rdf:li>zodiac</rdf:li>
          </rdf:Bag>
        </dc:subject>
      </cc:Work>
      <cc:License
         rdf:about="http://creativecommons.org/licenses/publicdomain/">
        <cc:permits
           rdf:resource="http://creativecommons.org/ns#Reproduction" />
        <cc:permits
           rdf:resource="http://creativecommons.org/ns#Distribution" />
        <cc:permits
           rdf:resource="http://creativecommons.org/ns#DerivativeWorks" />
      </cc:License>
    </rdf:RDF>
  </metadata>
</svg>
