<?xml version="1.0" encoding="UTF-8" standalone="no"?>
<!-- Created with Inkscape (http://www.inkscape.org/) -->

<svg
   xmlns:dc="http://purl.org/dc/elements/1.1/"
   xmlns:cc="http://creativecommons.org/ns#"
   xmlns:rdf="http://www.w3.org/1999/02/22-rdf-syntax-ns#"
   xmlns:svg="http://www.w3.org/2000/svg"
   xmlns="http://www.w3.org/2000/svg"
   xmlns:xlink="http://www.w3.org/1999/xlink"
   xmlns:sodipodi="http://sodipodi.sourceforge.net/DTD/sodipodi-0.dtd"
   xmlns:inkscape="http://www.inkscape.org/namespaces/inkscape"
   width="990"
   height="765"
   id="svg2"
   sodipodi:version="0.32"
   inkscape:version="0.48.3.1 r9886"
   version="1.0"
   sodipodi:docname="watermark.svg"
   inkscape:output_extension="org.inkscape.output.svg.inkscape"
   inkscape:export-filename="/home/couch/Desktop/ares_ca.png"
   inkscape:export-xdpi="96"
   inkscape:export-ydpi="96">
  <sodipodi:namedview
     id="base"
     pagecolor="#ffffff"
     bordercolor="#666666"
     borderopacity="1.0"
     gridtolerance="10000"
     guidetolerance="10"
     objecttolerance="10"
     inkscape:pageopacity="0.0"
     inkscape:pageshadow="2"
     inkscape:zoom="1.0392157"
     inkscape:cx="495"
     inkscape:cy="382.5"
     inkscape:document-units="px"
     inkscape:current-layer="layer1"
     showgrid="false"
     showguides="true"
     inkscape:guide-bbox="true"
     inkscape:window-width="1920"
     inkscape:window-height="993"
     inkscape:window-x="0"
     inkscape:window-y="27"
     borderlayer="true"
     inkscape:window-maximized="1"
     fit-margin-top="0"
     fit-margin-left="0"
     fit-margin-right="0"
     fit-margin-bottom="0" />
  <defs
     id="defs4" />
  <metadata
     id="metadata7">
    <rdf:RDF>
      <cc:Work
         rdf:about="">
        <dc:format>image/svg+xml</dc:format>
        <dc:type
           rdf:resource="http://purl.org/dc/dcmitype/StillImage" />
        <dc:title />
        <dc:creator>
          <cc:Agent>
            <dc:title>Tyler Tidman VA3DGN</dc:title>
          </cc:Agent>
        </dc:creator>
      </cc:Work>
    </rdf:RDF>
  </metadata>
  <g
     inkscape:groupmode="layer"
     id="layer2"
     inkscape:label="French"
     style="display:none"
     transform="translate(-105.54968,60.927038)">
    <g
       id="g2885">
      <path
         id="path3037-3-4"
         d="M 135.87651,228.30672 C 233.11874,79.496734 432.58347,37.692844 581.3935,134.93509 730.20348,232.17733 772.00738,431.64202 674.76508,580.45197 577.52291,729.26203 378.05817,771.06595 229.2482,673.82374 80.43818,576.58148 38.63427,377.11672 135.87651,228.30672 z"
         style="fill:none;stroke:#ffffff;stroke-width:1.21367157;stroke-miterlimit:4;stroke-opacity:1"
         inkscape:connector-curvature="0" />
      <path
         id="path3037-3"
         d="M 169.58254,684.83184 C 323.91254,815.90358 555.27635,797.04903 686.34809,642.719 817.41978,488.38906 798.56524,257.02524 644.23516,125.95361 489.90524,-5.118178 258.54149,13.736344 127.46978,168.06633 -3.60196,322.39635 15.25255,553.76012 169.58254,684.83184 z"
         style="fill:none;stroke:#ffffff;stroke-width:1.38239872;stroke-miterlimit:4;stroke-opacity:1"
         inkscape:connector-curvature="0" />
      <path
         id="circle3016-5"
         d="M 406.3125,6 C 185.22956,6 6,185.22956 6,406.3125 6,627.39544 185.22956,806.625 406.3125,806.625 627.39544,806.625 806.625,627.39544 806.625,406.3125 806.625,185.22956 627.39544,6 406.3125,6 z M 405.75,110.625 c 162.36509,0 293.96875,131.60366 293.96875,293.96875 0,162.36509 -131.60366,294 -293.96875,294 -162.36509,0 -294,-131.63491 -294,-294 0,-162.36509 131.63491,-293.96875 294,-293.96875 z"
         style="fill:#ffffff;fill-opacity:1;stroke:#000000;stroke-width:12.00000095;stroke-miterlimit:4;stroke-opacity:1;stroke-dasharray:none"
         inkscape:connector-curvature="0" />
      <text
         sodipodi:linespacing="125%"
         id="text2886"
         style="font-size:56px;font-style:normal;font-variant:normal;font-weight:bold;font-stretch:normal;text-align:start;line-height:125%;writing-mode:lr-tb;text-anchor:start;fill:#000000;fill-opacity:1;stroke:#000000;stroke-opacity:1;font-family:DejaVu Sans;-inkscape-font-specification:DejaVu Sans Bold"
         xml:space="preserve"
         transform="translate(0.27751646,-1.2285062)"><textPath
           id="textPath2991"
           xlink:href="#path3037-3-4">SERVICE D'URGENCE</textPath></text>
      <text
         sodipodi:linespacing="125%"
         id="text2886-8"
         style="font-size:56px;font-style:normal;font-variant:normal;font-weight:bold;font-stretch:normal;text-align:start;line-height:125%;writing-mode:lr-tb;text-anchor:start;fill:#000000;fill-opacity:1;stroke:#000000;stroke-opacity:1;font-family:DejaVu Sans;-inkscape-font-specification:DejaVu Sans Bold"
         xml:space="preserve"
         transform="translate(-0.85583378,-3.4952067)"><textPath
           id="textPath2983"
           xlink:href="#path3037-3"><tspan
   id="tspan2915">RADIO AMATEUR</tspan></textPath></text>
      <text
         transform="matrix(0.68135514,-0.73195298,0.73195298,0.68135514,0,0)"
         sodipodi:linespacing="125%"
         id="text2955-4-1"
         y="915.52686"
         x="-48.07336"
         style="font-size:28px;font-style:normal;font-variant:normal;font-weight:normal;font-stretch:normal;text-align:start;line-height:125%;writing-mode:lr-tb;text-anchor:start;fill:#000000;fill-opacity:1;stroke:none;display:inline;font-family:DejaVu Sans;-inkscape-font-specification:DejaVu Sans"
         xml:space="preserve"><tspan
           y="915.52686"
           x="-48.07336"
           id="tspan2957-7-7"
           sodipodi:role="line">®</tspan></text>
    </g>
  </g>
  <g
     inkscape:label="Layer 1"
     inkscape:groupmode="layer"
     id="layer1"
     transform="translate(-231.07404,-34.369542)"
     style="display:inline">
    <path
       inkscape:connector-curvature="0"
       style="opacity:0.1;fill:#000000;fill-opacity:1;fill-rule:evenodd;stroke:#000000;stroke-width:0.71927816;stroke-miterlimit:4;stroke-opacity:1;stroke-dasharray:none"
       d="m 964.88941,137.08166 -51.7712,217.64009 -9.49551,0 0.39109,10.79064 40.03426,0.35306 -0.94204,-11.42154 -13.22555,-0.27765 10.67295,-57.72991 38.8189,-0.27763 12.9523,58.87388 -12.9523,0 0.5888,10.12631 93.37389,0 -0.2354,-10.36179 -13.8941,0 -50.1605,-217.36244 -44.15543,-0.35305 z m -5.96304,79.54764 17.26254,63.98692 -32.13227,0.31537 14.86973,-64.30234 z"
       id="path3272"
       sodipodi:nodetypes="ccccccccccccccccccccc" />
    <path
       inkscape:connector-curvature="0"
       style="opacity:0.1;fill:#000000;fill-opacity:1;fill-rule:evenodd;stroke:#000000;stroke-width:0.71927816;stroke-miterlimit:4;stroke-opacity:1;stroke-dasharray:none"
       d="m 846.31736,137.55264 c -49.25782,0.19643 -98.51563,0.39251 -147.77348,0.58875 15.3465,35.16732 30.69293,70.33469 46.03938,105.50202 -17.46594,40.42675 -34.93181,80.85347 -52.39777,121.28023 41.76121,0.11763 83.52247,0.23537 125.28368,0.35305 -0.90669,-3.09228 1.31623,-9.35048 -1.6194,-10.39037 -4.79812,-0.10792 -9.5962,-0.21634 -14.39432,-0.3248 0.078,-35.9523 0.15722,-71.90464 0.23564,-107.85696 11.28504,3.00853 15.6395,13.98339 16.11787,25.07507 2.80786,23.18929 -1.09109,47.17791 5.30398,69.86482 5.36024,16.35687 19.40749,31.89426 37.79405,31.48896 13.64375,0.62517 27.77818,-4.81098 36.98401,-14.9217 4.11638,-4.40994 8.38276,-17.55988 3.86329,-18.99833 -4.92717,8.68957 -20.19402,10.66274 -16.5959,-2.61066 -0.55111,-17.79839 0.54967,-35.78192 -1.77461,-53.4521 -3.99042,-16.68946 -16.25379,-30.09497 -29.88371,-39.86073 12.90158,2.38739 22.16628,-9.28964 28.34425,-18.85956 8.23154,-16.43021 8.07311,-36.28025 3.49515,-53.74477 -5.03618,-17.64498 -20.81434,-30.93928 -39.022,-33.13318 z m -44.85766,11.19462 c 7.122,1.48982 13.05477,1.5642 16.22928,7.53136 3.82094,8.30357 1.58863,72.41452 -0.16787,74.35102 l -5.52468,6.09121 -9.94062,0.0981 c -1.06014,0.0106 -0.60778,-60.81729 -0.59625,-88.0717 z"
       id="path4287"
       sodipodi:nodetypes="cccccccccccccccccccccscsc" />
    <path
       inkscape:connector-curvature="0"
       style="opacity:0.1;fill:#000000;fill-opacity:1;fill-rule:evenodd;stroke:#000000;stroke-width:0.71927816;stroke-miterlimit:4;stroke-opacity:1;stroke-dasharray:none"
       d="m 726.93207,385.60213 264.40284,157.4814 -40.61355,26.5232 L 1147.9875,698.90717 872.80953,591.15676 927.51355,537.28158 726.93207,385.60213 z"
       id="path4054"
       sodipodi:nodetypes="ccccccc" />
    <path
       inkscape:connector-curvature="0"
       style="opacity:0.1;fill:#000000;fill-opacity:1;fill-rule:evenodd;stroke:#000000;stroke-width:0.71927816;stroke-miterlimit:4;stroke-opacity:1;stroke-dasharray:none"
       d="M 702.8954,107.93766 944.09052,-79.382315 956.52328,-31.309033 1145.5009,-167.24034 949.06364,47.431559 915.90969,-23.849361 702.8954,107.93766 z"
       id="path4056"
       sodipodi:nodetypes="ccccccc" />
    <path
       style="opacity:0.1;fill:#000000;fill-opacity:1;fill-rule:evenodd;stroke:#000000;stroke-width:0.71927816;stroke-miterlimit:4;stroke-opacity:1;stroke-dasharray:none"
       d="M 478.68135,-301.81158 C 398.29886,-118.71377 317.93616,61.441512 237.55363,244.53929 317.93616,427.67626 398.29886,613.7242 478.68135,796.86123 559.10308,613.7242 639.52724,430.61516 719.949,247.47817 L 478.68135,-301.81158 z m -0.69974,96.5164 c 35.98609,76.63987 68.72954,154.94534 101.13462,233.430653 -5.84965,31.297959 -11.40431,61.170749 -17.26006,92.504587 L 485.58537,90.784822 526.26314,224.90015 484.1859,211.97843 c 0.15722,-63.81929 0.35602,-127.627408 0.51313,-191.446717 19.04585,-25.1024803 38.14555,-50.142069 57.19145,-75.244533 l 0.97963,-1.446114 c -2.13508,-4.721874 -4.3491,-9.366125 -6.48419,-14.087941 -38.85678,-0.274803 -78.18513,-0.564935 -117.04186,-0.839678 -0.33274,0.424855 -5.87596,13.435679 -6.111,13.668102 1.17401,1.619288 56.95944,77.173897 58.73086,78.789834 -0.15722,61.896049 -0.77597,124.652527 -0.93298,186.548597 l -100.57484,-31.02146 30.64828,68.80699 -107.71212,19.8724 95.30352,48.18823 -20.71207,57.89118 c 34.22536,0.23563 68.49538,0.46424 102.72069,0.69972 -0.11763,38.89603 -0.25552,116.55266 -0.3732,116.71533 -0.34815,-0.0393 -70.30271,0.73614 -71.04614,-0.0933 -0.14494,0.83802 7.98812,15.61809 8.2102,17.07346 1.12317,0.20191 140.3061,0.21071 141.29925,0.55979 0.0886,-0.30934 6.97982,-16.15175 7.5571,-17.07346 -2.24145,-0.51652 -72.7993,-0.73135 -72.81879,-0.3732 -0.27735,-0.99234 0.25579,-77.87337 0.37319,-116.80863 11.06824,0.078 22.09903,0.20128 33.1673,0.27991 l -30.46167,52.06007 110.65099,0.79303 c 3.1844,-7.3329 6.3517,-14.67201 9.51635,-22.01824 3.16466,-7.34623 6.32608,-14.70214 9.46971,-22.06489 -3.14275,7.36254 -6.3059,14.71948 -9.46971,22.06489 -3.16204,7.34128 -6.33451,14.69113 -9.51635,22.01824 C 558.09446,515.68579 517.49623,604.91366 476.58214,695.9132 409.5459,548.36253 347.30621,395.90072 281.54346,247.47817 343.15689,94.030002 410.89443,-53.883381 477.98161,-205.29518 z m -50.19411,147.456888 43.80322,0.326543 c -0.0393,19.23214 -0.0538,38.425746 -0.0933,57.65794068 L 427.78751,-57.838292 z m 57.00484,0.419841 c 13.93353,0.07807 27.86379,0.201687 41.79733,0.279893 -13.97276,18.564864 -27.91791,38.626533 -41.89064,57.19144068 0.0393,-18.64341768 0.0538,-38.82791768 0.0933,-57.47133368 z M 658.46586,280.13234 c -3.30439,8.15038 -6.64667,16.28361 -9.98285,24.39733 -3.88905,9.45837 -7.77903,18.90122 -11.70884,28.31583 3.92382,-9.4035 7.82563,-18.86904 11.70884,-28.31583 3.33522,-8.11365 6.67932,-16.24762 9.98285,-24.39733 z M 414.95907,524.7587 c 2.13745,6.1232 6.24746,12.19602 8.86327,16.56034 1.33095,0.3523 73.16407,0.43314 109.71801,0.27989 2.89977,-6.97879 6.71083,-16.04417 6.39088,-16.37374 -38.75259,-0.22787 -84.71202,-0.39038 -124.97216,-0.46649 z m 61.20324,33.07401 c -23.24284,0.034 -46.38551,0.19121 -46.92871,0.0932 0.73733,1.39266 6.82452,16.58806 8.07024,17.81984 1.59294,0.82257 78.68041,0.86175 80.4692,0.46649 -0.61718,-1.53459 7.49732,-16.06118 5.87776,-17.91314 -0.89284,-0.43186 -24.24567,-0.49926 -47.48849,-0.46648 z m 20.52547,33.86705 c -5.68223,-0.01 -12.97919,0.0119 -20.24558,0.0466 -14.53276,0.069 -29.02944,0.26032 -30.32172,0.27989 0.73549,1.42447 6.7453,16.19407 7.83699,17.53995 1.3047,0.71194 41.03137,-0.0683 44.96945,0.32654 1.76077,-3.3954 6.98467,-14.65769 8.35015,-18.05309 -0.84377,-0.0891 -4.90706,-0.13105 -10.58929,-0.13986 z m -21.1319,36.47936 c -6.16524,0.0476 -12.36535,0.0932 -13.57481,0.0932 0.85251,1.56381 12.03113,25.35721 14.36783,25.8901 1.51844,-0.3489 13.24166,-22.89477 12.92173,-25.65685 -1.41384,-0.3504 -7.54955,-0.37457 -13.71475,-0.32653 z"
       id="path4326"
       inkscape:connector-curvature="0" />
    <path
       inkscape:connector-curvature="0"
       style="opacity:0.1;fill:#000000;fill-opacity:1;fill-rule:evenodd;stroke:#000000;stroke-width:0.71927816;stroke-miterlimit:4;stroke-opacity:1;stroke-dasharray:none"
       d="m 1213.1091,290.1125 c -0.3422,8.53143 0.5101,17.20581 -2.1303,25.46217 -2.0967,8.89371 -3.2558,18.13363 -8.1694,26.07583 -6.4839,13.44016 -18.0189,24.5993 -31.5847,30.74997 -14.9203,4.20258 -30.8702,-0.35793 -43.7011,-8.36459 -13.3667,-8.27262 -26.72,-18.85028 -33.1997,-33.57991 -6.5008,-17.43054 -12.5748,-35.28677 -13.9002,-53.97278 -3.028,-22.3788 -3.989,-45.70437 2.8976,-67.49284 1.6208,-10.23771 6.2276,-19.35512 11.1687,-28.30685 6.3948,-11.76981 12.3933,-24.81102 24.299,-32.04028 6.2108,-5.94678 14.2164,-9.00852 22.0484,-12.04422 9.4085,-2.90626 18.834,-2.38731 28.3887,-0.51618 10.6242,-2.67501 16.8418,14.42869 26.0168,9.06708 4.1062,-4.58823 7.3619,-13.88147 14.7273,-12.26939 4.939,-1.39193 4.1975,2.7275 4.0739,6.24727 0.1778,25.33003 0.3562,50.66006 0.5339,75.99008 -8.3099,1.06312 -10.5796,-1.62378 -9.9852,-9.53929 -1.1847,-9.45846 -5.3474,-18.44916 -9.7217,-26.88403 -3.4286,-9.79933 -10.9262,-16.85277 -18.7504,-23.12566 -7.0837,-6.16671 -17.8661,-0.17754 -22.627,6.48097 -9.9941,11.75256 -11.0893,28.05132 -10.5061,42.8175 1.1256,30.26181 -0.8993,60.52775 -0.1581,90.79561 -0.1084,16.72151 0.067,34.48549 9.604,48.98882 3.0108,9.20447 13.5892,11.66422 21.9536,8.75993 8.3505,-4.25941 16.6466,-10.1443 20.2476,-19.17173 4.8688,-9.85391 7.3013,-20.87223 9.3518,-31.6386 1.5897,-6.30158 -1.4618,-15.00149 7.573,-12.48888 0.5166,0 1.0331,0 1.5496,0 z"
       id="path3277" />
  </g>
</svg>
