<?xml version="1.0" encoding="UTF-8" standalone="no"?>
<!-- Created with Inkscape (http://www.inkscape.org/) -->

<svg
   xmlns:dc="http://purl.org/dc/elements/1.1/"
   xmlns:cc="http://creativecommons.org/ns#"
   xmlns:rdf="http://www.w3.org/1999/02/22-rdf-syntax-ns#"
   xmlns:svg="http://www.w3.org/2000/svg"
   xmlns="http://www.w3.org/2000/svg"
   version="1.1"
   width="990"
   height="765"
   id="svg3040">
  <defs
     id="defs3042" />
  <metadata
     id="metadata3046">
    <rdf:RDF>
      <cc:Work
         rdf:about="">
        <dc:format>image/svg+xml</dc:format>
        <dc:type
           rdf:resource="http://purl.org/dc/dcmitype/StillImage" />
        <dc:title></dc:title>
      </cc:Work>
    </rdf:RDF>
  </metadata>
  <g
     transform="matrix(-1,0,0,-1,976.57886,750.94661)"
     id="g3266"
     style="opacity:0.2">
    <path
       d="m 20.402,33.178 c -0.70217,-0.65784 -2.5027,-7.5732 4.6262,-7.1757 5.9048,0.32925 5.5918,11.415 -0.21483,12.463 -2.6376,0.4758 -5.7709,0.11033 -8.23,-2.4894 -4.3049,-4.5512 -2.8253,-12.26 2.0855,-15.414 6.5325,-4.1963 16.543,-0.62964 21.178,5.9643 6.1078,8.6898 1.6139,20.844 -3.1826,26.446 -20.985,26.257 -17.217,33.502 -16.234,37.655"
       id="path4046"
       style="fill:none;stroke:#000000;stroke-width:1px;stroke-linecap:round;stroke-linejoin:round" />
    <path
       d="m 91.86,20.771 c 0.51817,-1.1509 8.3173,-6.3148 10.83,2.7118 2.0813,7.4767 -11.77,11.779 -15.513,5.0072 -1.7005,-3.0761 -2.5688,-7.1243 -0.38798,-11.28 3.8179,-7.2754 14.06,-8.7958 19.955,-3.9319 9.1728,7.568 7.0508,18.713 0.14312,27.964 -8.334,11.156 -29.674,8.548 -32.495,7.587 -6.526,-2.202 -14.424,-5.141 -24.51,-5.169"
       id="path4051"
       style="fill:none;stroke:#000000;stroke-width:1px;stroke-linecap:round;stroke-linejoin:round" />
    <path
       d="m 50.388,65.631 c 0.22035,0.97992 5.4807,6.2509 8.8845,-0.38428 2.8194,-5.4959 -7.3012,-11.062 -11.305,-6.3808 -1.8187,2.1263 -3.1435,5.1433 -2.1061,8.7311 1.8161,6.2811 9.5193,9.0141 14.943,6.2519 7.2146,-3.6743 9.1141,-14.824 3.8338,-21.367 -3.3427,-4.1423 -6.9644,-5.8841 -13.038,-7.8611 -2.6068,-0.6071 -5.3297,-0.53739 -8.2249,-0.27915"
       id="path4053"
       style="fill:none;stroke:#000000;stroke-width:1px;stroke-linecap:round;stroke-linejoin:round" />
    <path
       d="m 65.847,162.74 c 0.77161,-0.64297 8.1541,-1.6194 6.8123,5.7162 -1.1113,6.0761 -12.528,4.3262 -12.853,-1.8251 -0.14735,-2.7942 0.63954,-5.9938 3.6476,-8.2076 5.266,-3.8754 13.04,-1.3511 15.659,4.143 3.484,7.3084 -1.8476,17.122 -9.9737,19.282 -5.2467,1.3946 -14.178,-1.2048 -15.624,-2.8218 -1.8808,-1.1032 -4.2572,-4.9322 -6.3858,-7.3983"
       id="path4055"
       style="fill:none;stroke:#000000;stroke-width:1px;stroke-linecap:round;stroke-linejoin:round" />
    <path
       d="m 25.522,191.31 c -1.1209,-0.0279 -8.2605,4.0495 -2.0052,9.3166 5.1812,4.3627 13.965,-4.679 9.9884,-10.057 -1.8062,-2.443 -4.7112,-4.6067 -8.8779,-4.4694 -7.2945,0.24025 -12.352,7.5157 -10.84,13.865 2.0115,8.4453 10.028,13.206 19.264,11.604 12.171,-2.1125 18.1,-15.648 18.679,-23.848 0.75382,-5.8238 -0.6507,-8.6472 -4.9775,-16.472"
       id="path4057"
       style="fill:none;stroke:#000000;stroke-width:1px;stroke-linecap:round;stroke-linejoin:round" />
    <path
       d="m 209.09,38.115 c -0.57462,-0.46323 -6.0302,-1.1062 -4.9804,4.2514 0.86958,4.4377 9.2801,3.0454 9.4694,-1.4614 0.0859,-2.0472 -0.52075,-4.3821 -2.7585,-5.9736 -3.9175,-2.7861 -9.6336,-0.86219 -11.522,3.1858 -2.5114,5.3847 0.76123,13.283 6.7619,14.798 6.3913,1.614 16.018,-7.2064 20.428,-10.742 18.445,-14.787 28.17,2.1384 21.26,11.854 -4.3938,6.1778 -18.453,8.4268 -34.978,6.8164"
       id="path4059"
       style="fill:none;stroke:#000000;stroke-width:1px;stroke-linecap:round;stroke-linejoin:round" />
    <path
       d="m 297.76,36.6 c 0.18053,-0.39522 2.8978,-2.1685 3.7732,0.93121 0.72511,2.5675 -4.1007,4.0449 -5.405,1.7195 -0.59246,-1.0563 -0.89499,-2.4464 -0.13512,-3.8735 1.3302,-2.4983 5.1976,-2.9294 6.9524,-1.3502 2.3664,2.1297 2.4303,7.2176 -0.82628,9.515 -9.9974,7.0525 -25.901,7.8212 -49.152,9.3363"
       id="path4061"
       style="fill:none;stroke:#000000;stroke-width:1px;stroke-linecap:round;stroke-linejoin:round" />
    <path
       d="m 40.176,92.019 c 0.43567,-0.36067 4.6039,-0.90841 3.8464,3.2065 -0.62749,3.4084 -7.0737,2.4268 -7.2569,-1.0238 -0.0832,-1.5674 0.3611,-3.3622 2.0595,-4.604 2.9733,-2.1739 7.6077,-0.46231 8.8415,2.324 1.6458,3.7166 -0.95468,10.011 -5.6313,10.816 -8.833,1.52 -20.845,-10.08 -22.152,-12.832"
       id="path4063"
       style="fill:none;stroke:#000000;stroke-width:1px;stroke-linecap:round;stroke-linejoin:round" />
    <path
       d="m 41.721,290.24 c 0.45936,-5.9081 -8.0572,-4.925 -6.8756,1.5101 0.97874,5.3302 10.445,3.7315 11.319,-1.601 0.42091,-2.5676 -0.5852,-5.8906 -3.1248,-7.5504 -4.5931,-3.002 -11.789,-0.85284 -13.879,3.9848 -2.5191,5.8323 3.6449,13.868 7.2067,17.791 23.054,25.39 -18.603,33.856 -14.8,2.6462 1.4632,-12.006 47.755,-33.748 52.53,-87.395"
       id="path4075"
       style="fill:none;stroke:#000000;stroke-width:1px;stroke-linecap:round;stroke-linejoin:round" />
    <path
       d="m 83.961,190.15 c -11.212,-0.58204 -24.551,-4.9206 -34.195,-14.496 34.01,34.476 15.053,41.654 33.948,58.107"
       id="path4077"
       style="fill:none;stroke:#000000;stroke-width:1px;stroke-linecap:round" />
    <path
       d="m 36.595,253.96 c 16.053,-12.811 19.818,-6.5324 21.73,-26.585 1.0855,-11.386 3.9222,-24.405 -8.0629,-50.685 35.277,37.66 1.0758,57.207 7.3591,76.744"
       id="path4079"
       style="fill:none;stroke:#000000;stroke-width:1px;stroke-linecap:round" />
    <path
       d="m 41.96,234.88 c 6.5417,-0.85076 11.047,-4.6048 16.23,-8.0532"
       id="path4081"
       style="fill:none;stroke:#000000;stroke-width:1px;stroke-linecap:round;stroke-linejoin:round" />
    <path
       d="m 54.984,241.14 c -9.92,22.17 -25.141,26.84 -38.918,54.57 -11.972,37.475 25.661,53.989 45.276,35.855 2.5784,-2.3836 13.038,-16.965 18.159,-20.492"
       id="path4083"
       style="fill:none;stroke:#000000;stroke-width:1px;stroke-linecap:round" />
    <path
       d="m 36.137,107.14 c -36.95,10.902 3.8154,50.467 17.008,71.892 l -2.2928,-1.1879 c -22.393,-25.29 -49.331,-61.19 -14.715,-70.7 z"
       id="path4085"
       style="stroke:#000000;stroke-width:0.30000001;stroke-linejoin:round" />
    <path
       d="m 51.137,308.46 c 13.865,22.955 -13.905,30.878 -21.639,27.553 1.1487,0.56347 -8.285,-5.5925 -7.1241,-4.4567 5.2365,5.1232 7.4835,8.6596 15.038,8.0514 15.484,-2.033 26.911,-21.883 13.725,-31.147 z"
       id="path4087"
       style="stroke:#000000;stroke-width:0.2" />
    <path
       d="m 32.114,337.15 c 28.287,18.881 27.374,31.046 29.711,40.344"
       id="path4089"
       style="fill:none;stroke:#000000;stroke-width:1px;stroke-linecap:round" />
    <path
       d="m 62.067,330.86 c 10.091,-3.2061 17.618,-0.56636 23.238,4.4023"
       id="path4091"
       style="fill:none;stroke:#000000;stroke-width:1px;stroke-linejoin:round" />
    <path
       d="M 317.13,56.346 C 269.66,56.546 196.41,47.224 184.81,42.47 -15.58,-28.23 -14.04,112.92 55.84,112.41"
       id="path4093"
       style="fill:none;stroke:#000000;stroke-width:1px;stroke-linecap:round" />
    <path
       d="M 77.683,63.681 C 74.304,62.941 69.6,59.469 66.381,55.446"
       id="path4095"
       style="fill:none;stroke:#000000;stroke-width:1px;stroke-linecap:round" />
    <path
       d="M 19.861,89.788 C 11.179,68.565 24.466,44.705 49.977,43.662"
       id="path4097"
       style="fill:none;stroke:#000000;stroke-width:1px" />
    <path
       d="m 13.641,71.39 c 7.485,-51.008 93.479,-53.216 107.93,2.103"
       id="path4099"
       style="fill:none;stroke:#000000;stroke-width:1px;stroke-linecap:round" />
    <path
       d="m 13.51,73.449 c 16.581,-64.392 91.78,-29.69 97.55,-20.456 36.446,18.498 60.365,3.5305 61.139,-17.669 0.42489,-11.633 -18.882,-29.718 -32.754,-12.118 21.046,-15.955 31.773,8.1679 29.238,19.63 -4.2631,19.273 -36.132,22.894 -58.499,9.1934 -4.2,-12.872 -75.75,-45.791 -96.889,19.055 z"
       id="path4101"
       style="stroke:#000000;stroke-width:0.2" />
    <path
       d="M 241.6,72.266 C 231.83,62.05 200.33,59.987 180.24,52.309 109.79,25.384 79.44,24.488 56.4,26.25"
       id="path4103"
       style="fill:none;stroke:#000000;stroke-width:1px;stroke-linecap:round" />
    <path
       d="M 169.08,67.001 C 161.1,56.501 145.29,45.384 117.13,31.97"
       id="path4105"
       style="fill:none;stroke:#000000;stroke-width:1px;stroke-linecap:round" />
    <path
       d="m 260.57,53.497 10.098,7.0621"
       id="path4126"
       style="fill:none;stroke:#000000;stroke-width:1px;stroke-linecap:round" />
    <path
       d="m 17.924,121.27 c 12.266,-14.028 17.459,9.2366 8.0533,15.549 -12.516,6.961 6.1296,19.562 11.646,2.354 3.4049,-9.2841 1.4545,-15.653 -3.8408,-23.788 -3.9433,-5.4586 -6.0571,-11.798 -2.7257,-23.912 2.2208,-8.0044 11.669,-8.4656 12.39,-8.4869 10.136,-0.29884 10.136,6.865 10.903,9.7878 0.66753,7.2482 -4.2881,11.758 -7.9294,12.823 -11.566,3.3827 -8.7593,1.9495 -12.198,2.0848 l -0.50146,-1.9609 c 3.4757,0.51032 9.6218,0.6245 12.08,-0.80533 4.4318,-2.5779 7.248,-5.6786 7.3099,-12.142 0.46987,-9.8168 -17.131,-12.973 -21.124,-1.3009 -1.8417,10.331 4.1772,18.123 7.8674,27.071 4.28,9.072 1.7964,18.653 -0.18584,23.788 -6.9691,13 -25.324,3.1312 -19.7,-3.3452 15.033,-18.169 7.5597,-25.934 -2.0443,-17.717 z"
       id="path4140"
       style="stroke:#000000;stroke-width:0.2" />
    <g
       transform="matrix(-0.7267,-0.68696,0.68696,-0.7267,236.44,227.97)"
       id="g3067"
       style="stroke:#000000;stroke-width:0.2">
      <path
         d="m 59.069,182.05 c 6.18,-1.4083 5.0508,11.519 10.284,16.952 -3.953,-3.5362 -10.423,-9.2644 -11.205,-16.733 0.67704,1.8293 2.632,2.5322 3.7314,5.0673 -0.38858,-2.5978 -1.3196,-3.7491 -2.8107,-5.2861 z"
         id="path4543" />
      <path
         d="m 56.785,180.16 c 3.5981,-5.2181 -8.8274,-8.9599 -11.934,-15.834 1.8195,4.982 4.7422,13.114 11.39,16.608 -1.4482,-1.3067 -1.3766,-3.383 -3.3238,-5.3435 2.2688,1.3236 2.9932,2.6149 3.8682,4.5694 z"
         id="path4545" />
      <path
         d="m 56.851,182.68 c 3.3884,5.3567 -9.1757,8.6029 -12.553,15.349 2.0156,-4.9059 5.2584,-12.916 12.039,-16.144 -1.4988,1.2483 -1.5096,3.3258 -3.533,5.2076 2.3195,-1.2326 3.0946,-2.4942 4.0463,-4.4124 z"
         id="path4547" />
    </g>
    <path
       d="m 284.73,85.549 c 0.79363,-12.241 4.2287,-27.202 -11.713,-24.662 6.0284,1.653 5.4814,4.1964 5.7527,6.7974 -1.1599,-2.158 -2.769,-4.7179 -6.1498,-5.8326 -4.1273,-1.1275 -9.8791,5.5526 -2.9152,11.159 2.7428,2.1244 10.798,5.8024 15.025,12.538 z"
       id="path4226"
       style="stroke:#000000;stroke-width:0.2" />
    <path
       d="m 247.23,83.096 c 0.32987,-5.1052 1.7576,-11.345 -4.8683,-10.286 2.5057,0.68937 2.2783,1.7501 2.3911,2.8349 -0.48211,-0.9 -1.1509,-1.9676 -2.5561,-2.4325 -1.7155,-0.47024 -4.1062,2.3157 -1.2117,4.6541 1.14,0.886 4.4883,2.4199 6.245,5.2291 z"
       id="path4240"
       style="stroke:#000000;stroke-width:0.2" />
    <path
       d="m 176.23,94.162 c 3.4974,-11.758 10.175,-25.579 -5.9317,-26.65 5.5095,2.9528 4.4103,5.3108 4.0961,7.907 -0.65067,-2.362 -1.6498,-5.2157 -4.6979,-7.0547 -3.773,-2.0176 -10.867,3.2154 -5.3251,10.231 2.2014,2.6815 9.2368,8.0596 11.859,15.567 z"
       id="path4242"
       style="stroke:#000000;stroke-width:0.2" />
    <path
       d="m 115.82,90.104 c 5.9203,-4.6299 14.158,-9.1617 6.5178,-15.413 1.694,3.4298 0.30868,4.2171 -0.77047,5.402 0.51545,-1.4104 1.0321,-3.1899 0.16789,-5.19 -1.1617,-2.3465 -6.554,-2.2511 -6.2878,3.2189 0.1432,2.1202 1.7351,7.3026 0.37257,11.982 z"
       id="path4244"
       style="stroke:#000000;stroke-width:0.2" />
    <path
       d="m 87.317,73 c -1.1662,-5.4912 -1.5085,-12.507 -8.1976,-9.4205 2.853,-0.01561 2.9274,1.1725 3.3685,2.285 -0.77662,-0.80766 -1.8003,-1.7369 -3.4235,-1.8109 -1.9528,0.01253 -3.653,3.6654 0.10026,5.2764 1.4679,0.59754 5.4621,1.2239 8.1524,3.6701 z"
       id="path4246"
       style="stroke:#000000;stroke-width:0.2" />
    <path
       d="m 78.534,129.47 c -4.4019,-11.45 -7.543,-26.475 -20.958,-17.498 6.1668,-1.0215 6.7345,1.5174 8.0694,3.7662 -1.9565,-1.4746 -4.4892,-3.1262 -8.0262,-2.7237 -4.2204,0.70316 -6.6488,9.1773 2.0223,11.355 3.3801,0.78166 12.236,0.75092 18.893,5.0998 z"
       id="path4248"
       style="stroke:#000000;stroke-width:0.2" />
    <path
       d="m 108.58,204.01 c -5.99,-10.7 -11.243,-25.12 -23.242,-14.33 5.9582,-1.8902 6.882,0.54181 8.5239,2.5773 -2.1468,-1.1806 -4.889,-2.4542 -8.3325,-1.5516 -4.0771,1.2977 -5.2725,10.031 3.6206,10.951 3.457,0.29178 12.218,-1.0012 19.427,2.3542 z"
       id="path4250"
       style="stroke:#000000;stroke-width:0.2" />
    <path
       d="m 27.354,243.45 c 3.3589,-6.26 6.2512,-14.666 13.316,-8.5359 -3.4721,-1.0335 -3.982,0.38421 -4.9122,1.5796 1.2316,-0.70557 2.8073,-1.4711 4.812,-0.98377 2.3759,0.70962 3.1595,5.7544 -1.9838,6.378 -2.0001,0.20434 -7.0897,-0.45457 -11.232,1.5621 z"
       id="path4252"
       style="stroke:#000000;stroke-width:0.2" />
    <path
       d="m 22.986,279.58 c -0.819,-12.64 -4.366,-28.08 12.092,-25.46 -6.2235,1.7064 -5.6589,4.332 -5.939,7.017 1.1975,-2.2277 2.8586,-4.8703 6.3489,-6.021 4.261,-1.164 10.199,5.732 3.0096,11.52 -2.8316,2.193 -11.148,5.9898 -15.511,12.943 z"
       id="path4254"
       style="stroke:#000000;stroke-width:0.2" />
    <path
       d="m 92.77,244.04 c -0.92331,-5.6488 -0.93136,-12.811 -7.9104,-9.9839 2.9133,0.11899 2.9315,1.3328 3.3277,2.4869 -0.75355,-0.85945 -1.7534,-1.8545 -3.4069,-2.0065 -1.9942,-0.0796 -3.9077,3.5611 -0.15444,5.3796 1.4695,0.67809 5.5166,1.505 8.1441,4.124 z"
       id="path4256"
       style="stroke:#000000;stroke-width:0.2" />
    <g
       transform="matrix(0.63929,-0.76897,0.76897,0.63929,-114.33,308.07)"
       id="g4258"
       style="stroke:#000000;stroke-width:0.2">
      <path
         d="m 59.069,182.05 c 6.18,-1.4083 5.0508,11.519 10.284,16.952 -3.953,-3.5362 -10.423,-9.2644 -11.205,-16.733 0.67704,1.8293 2.632,2.5322 3.7314,5.0673 -0.38858,-2.5978 -1.3196,-3.7491 -2.8107,-5.2861 z"
         id="path4260" />
      <path
         d="m 56.785,180.16 c 3.5981,-5.2181 -8.8274,-8.9599 -11.934,-15.834 1.8195,4.982 4.7422,13.114 11.39,16.608 -1.4482,-1.3067 -1.3766,-3.383 -3.3238,-5.3435 2.2688,1.3236 2.9932,2.6149 3.8682,4.5694 z"
         id="path4262" />
      <path
         d="m 56.851,182.68 c 3.3884,5.3567 -9.1757,8.6029 -12.553,15.349 2.0156,-4.9059 5.2584,-12.916 12.039,-16.144 -1.4988,1.2483 -1.5096,3.3258 -3.533,5.2076 2.3195,-1.2326 3.0946,-2.4942 4.0463,-4.4124 z"
         id="path4264" />
    </g>
    <path
       d="m 98.011,359.65 c 0.79363,-12.241 4.2287,-27.202 -11.713,-24.662 6.0284,1.653 5.4814,4.1964 5.7527,6.7974 -1.1599,-2.158 -2.769,-4.7179 -6.1498,-5.8326 -4.1273,-1.1275 -9.8791,5.5526 -2.9152,11.159 2.7428,2.1244 10.798,5.8024 15.025,12.538 z"
       id="path4266"
       style="stroke:#000000;stroke-width:0.2" />
    <path
       d="m 102.13,294.93 c -12.226,1.001 -27.528,-0.21433 -22.69,15.186 0.75567,-6.205 3.3517,-6.035 5.8853,-6.683 -1.9657,1.4624 -4.2634,3.4277 -4.8728,6.935 -0.51325,4.2477 6.9347,8.9632 11.465,1.2557 1.7015,-3.0234 4.1647,-11.53 10.212,-16.694 z"
       id="path4268"
       style="stroke:#000000;stroke-width:0.2" />
    <path
       d="m 62.869,265.63 c -4.6636,-3.3185 -11.089,-6.4825 -5.4754,-11.501 -1.1772,2.6676 -0.09571,3.2188 0.76565,4.0831 -0.43935,-1.0552 -0.89185,-2.3913 -0.29954,-3.9426 0.80747,-1.8251 4.9189,-1.9382 4.8969,2.2324 -0.03898,1.6179 -1.0805,5.6152 0.11237,9.1281 z"
       id="path4270"
       style="stroke:#000000;stroke-width:0.2" />
    <g
       transform="matrix(-0.81282,-0.58252,0.58252,-0.81282,135.2,733.3)"
       id="g4272"
       style="stroke:#000000;stroke-width:0.2">
      <path
         d="m 305.42,232.85 c 12.26,0.4192 27.487,-1.5215 23.385,14.091 -1.0495,-6.1621 -3.6346,-5.869 -6.1961,-6.3959 2.0329,1.3674 4.4214,3.2214 5.1967,6.6958 0.71437,4.2185 -6.5012,9.2824 -11.393,1.7989 -1.8432,-2.9392 -4.7076,-11.319 -10.993,-16.19 z"
         id="path4274" />
      <path
         d="m 329.05,247.72 10.693,19.063 -1.2492,-0.05 -9.7438,-18.039 z"
         id="path4276" />
    </g>
    <g
       transform="matrix(-0.87131,-0.49073,-0.49073,0.87131,551.24,-39.59)"
       id="g4278"
       style="stroke:#000000;stroke-width:0.2">
      <path
         d="m 305.42,232.85 c 12.26,0.4192 27.487,-1.5215 23.385,14.091 -1.0495,-6.1621 -3.6346,-5.869 -6.1961,-6.3959 2.0329,1.3674 4.4214,3.2214 5.1967,6.6958 0.71437,4.2185 -6.5012,9.2824 -11.393,1.7989 -1.8432,-2.9392 -4.7076,-11.319 -10.993,-16.19 z"
         id="path4280" />
      <path
         d="m 329.05,247.72 10.693,19.063 -1.2492,-0.05 -9.7438,-18.039 z"
         id="path4282" />
    </g>
    <g
       transform="matrix(-0.34535,-0.1945,-0.1945,0.34535,455.57,29.428)"
       id="g4290"
       style="stroke:#000000;stroke-width:0.50459999">
      <path
         d="m 305.42,232.85 c 12.26,0.4192 27.487,-1.5215 23.385,14.091 -1.0495,-6.1621 -3.6346,-5.869 -6.1961,-6.3959 2.0329,1.3674 4.4214,3.2214 5.1967,6.6958 0.71437,4.2185 -6.5012,9.2824 -11.393,1.7989 -1.8432,-2.9392 -4.7076,-11.319 -10.993,-16.19 z"
         id="path4292" />
      <path
         d="m 329.05,247.72 10.693,19.063 -1.2492,-0.05 -9.7438,-18.039 z"
         id="path4294" />
    </g>
  </g>
  <g
     transform="translate(18.74738,22.117971)"
     id="g3622"
     style="opacity:0.2">
    <path
       d="m 48.031,24.443 c 2.5334,-2.7175 4.4816,-4.2194 3.1594,-8.9825 -1.6465,-5.9309 6.7838,-7.9921 6.6904,-0.92922 -0.08689,6.5685 -5.8361,7.6458 -9.8498,9.9117 z"
       id="path3272"
       style="stroke:#000000;stroke-width:0.30000001;stroke-linecap:round;stroke-linejoin:round" />
    <path
       d="m 59.431,16.883 c 2.9486,-3.1615 5.2162,-4.9088 3.6772,-10.45 -1.9163,-6.8998 7.8957,-9.2979 7.7869,-1.081 -0.10113,7.6417 -6.7926,8.895 -11.464,11.531 z"
       id="path4042"
       style="stroke:#000000;stroke-width:0.30000001;stroke-linecap:round;stroke-linejoin:round" />
    <path
       d="m 20.402,33.178 c -0.70217,-0.65784 -2.5027,-7.5732 4.6262,-7.1757 5.9048,0.32925 5.5918,11.415 -0.21483,12.463 -2.6376,0.4758 -5.7709,0.11033 -8.23,-2.4894 -4.3049,-4.5512 -2.8253,-12.26 2.0855,-15.414 6.5325,-4.1963 16.543,-0.62964 21.178,5.9643 6.1078,8.6898 1.6139,20.844 -3.1826,26.446 -20.985,26.257 -17.217,33.502 -16.234,37.655"
       id="path4046-4"
       style="fill:none;stroke:#000000;stroke-width:1px;stroke-linecap:round;stroke-linejoin:round" />
    <path
       d="m 91.86,20.771 c 0.51817,-1.1509 8.3173,-6.3148 10.83,2.7118 2.0813,7.4767 -11.77,11.779 -15.513,5.0072 -1.7005,-3.0761 -2.5688,-7.1243 -0.38798,-11.28 3.8179,-7.2754 14.06,-8.7958 19.955,-3.9319 9.1728,7.568 7.0508,18.713 0.14312,27.964 -8.334,11.156 -29.674,8.548 -32.495,7.587 -6.526,-2.202 -14.424,-5.141 -24.51,-5.169"
       id="path4051-5"
       style="fill:none;stroke:#000000;stroke-width:1px;stroke-linecap:round;stroke-linejoin:round" />
    <path
       d="m 50.388,65.631 c 0.22035,0.97992 5.4807,6.2509 8.8845,-0.38428 2.8194,-5.4959 -7.3012,-11.062 -11.305,-6.3808 -1.8187,2.1263 -3.1435,5.1433 -2.1061,8.7311 1.8161,6.2811 9.5193,9.0141 14.943,6.2519 7.2146,-3.6743 9.1141,-14.824 3.8338,-21.367 -3.3427,-4.1423 -6.9644,-5.8841 -13.038,-7.8611 -2.6068,-0.6071 -5.3297,-0.53739 -8.2249,-0.27915"
       id="path4053-9"
       style="fill:none;stroke:#000000;stroke-width:1px;stroke-linecap:round;stroke-linejoin:round" />
    <path
       d="m 65.847,162.74 c 0.77161,-0.64297 8.1541,-1.6194 6.8123,5.7162 -1.1113,6.0761 -12.528,4.3262 -12.853,-1.8251 -0.14735,-2.7942 0.63954,-5.9938 3.6476,-8.2076 5.266,-3.8754 13.04,-1.3511 15.659,4.143 3.484,7.3084 -1.8476,17.122 -9.9737,19.282 -5.2467,1.3946 -14.178,-1.2048 -15.624,-2.8218 -1.8808,-1.1032 -4.2572,-4.9322 -6.3858,-7.3983"
       id="path4055-4"
       style="fill:none;stroke:#000000;stroke-width:1px;stroke-linecap:round;stroke-linejoin:round" />
    <path
       d="m 25.522,191.31 c -1.1209,-0.0279 -8.2605,4.0495 -2.0052,9.3166 5.1812,4.3627 13.965,-4.679 9.9884,-10.057 -1.8062,-2.443 -4.7112,-4.6067 -8.8779,-4.4694 -7.2945,0.24025 -12.352,7.5157 -10.84,13.865 2.0115,8.4453 10.028,13.206 19.264,11.604 12.171,-2.1125 18.1,-15.648 18.679,-23.848 0.75382,-5.8238 -0.6507,-8.6472 -4.9775,-16.472"
       id="path4057-3"
       style="fill:none;stroke:#000000;stroke-width:1px;stroke-linecap:round;stroke-linejoin:round" />
    <path
       d="m 209.09,38.115 c -0.57462,-0.46323 -6.0302,-1.1062 -4.9804,4.2514 0.86958,4.4377 9.2801,3.0454 9.4694,-1.4614 0.0859,-2.0472 -0.52075,-4.3821 -2.7585,-5.9736 -3.9175,-2.7861 -9.6336,-0.86219 -11.522,3.1858 -2.5114,5.3847 0.76123,13.283 6.7619,14.798 6.3913,1.614 16.018,-7.2064 20.428,-10.742 18.445,-14.787 28.17,2.1384 21.26,11.854 -4.3938,6.1778 -18.453,8.4268 -34.978,6.8164"
       id="path4059-1"
       style="fill:none;stroke:#000000;stroke-width:1px;stroke-linecap:round;stroke-linejoin:round" />
    <path
       d="m 297.76,36.6 c 0.18053,-0.39522 2.8978,-2.1685 3.7732,0.93121 0.72511,2.5675 -4.1007,4.0449 -5.405,1.7195 -0.59246,-1.0563 -0.89499,-2.4464 -0.13512,-3.8735 1.3302,-2.4983 5.1976,-2.9294 6.9524,-1.3502 2.3664,2.1297 2.4303,7.2176 -0.82628,9.515 -9.9974,7.0525 -25.901,7.8212 -49.152,9.3363"
       id="path4061-0"
       style="fill:none;stroke:#000000;stroke-width:1px;stroke-linecap:round;stroke-linejoin:round" />
    <path
       d="m 40.176,92.019 c 0.43567,-0.36067 4.6039,-0.90841 3.8464,3.2065 -0.62749,3.4084 -7.0737,2.4268 -7.2569,-1.0238 -0.0832,-1.5674 0.3611,-3.3622 2.0595,-4.604 2.9733,-2.1739 7.6077,-0.46231 8.8415,2.324 1.6458,3.7166 -0.95468,10.011 -5.6313,10.816 -8.833,1.52 -20.845,-10.08 -22.152,-12.832"
       id="path4063-8"
       style="fill:none;stroke:#000000;stroke-width:1px;stroke-linecap:round;stroke-linejoin:round" />
    <path
       d="M 8.2127,69.356 C 7.80182,65.6635 7.93185,63.207 3.4571,61.1067 -2.1148,58.4914 1.8143,50.7527 7.1113,55.4259 c 4.9263,4.3456 1.9976,9.4089 1.1014,13.93 z"
       id="path4067"
       style="stroke:#000000;stroke-width:0.30000001;stroke-linecap:round;stroke-linejoin:round" />
    <path
       d="M 9.906,55.782 C 9.42885,51.4853 9.58078,48.6267 4.3744,46.1837 -2.1084,43.1418 2.4655,34.1357 8.6279,39.5722 c 5.7311,5.0557 2.322,10.948 1.278,16.21 z"
       id="path4069"
       style="stroke:#000000;stroke-width:0.30000001;stroke-linecap:round;stroke-linejoin:round" />
    <path
       d="m 6.7812,306.9 c -0.15745,3.7119 0.14023,6.1538 -4.1805,8.5551 -5.3801,2.9901 -0.93108,10.442 4.0341,5.4176 4.6176,-4.6723 1.3496,-9.5235 0.14638,-13.973 z"
       id="path4071"
       style="stroke:#000000;stroke-width:0.30000001;stroke-linecap:round;stroke-linejoin:round" />
    <path
       d="m 9.3986,320.33 c -0.18226,4.3193 0.16477,7.1608 -4.8623,9.954 -6.2597,3.478 -1.0807,12.15 4.6956,6.3052 5.372,-5.4357 1.568,-11.082 0.16672,-16.259 z"
       id="path4073"
       style="stroke:#000000;stroke-width:0.30000001;stroke-linecap:round;stroke-linejoin:round" />
    <path
       d="m 41.721,290.24 c 0.45936,-5.9081 -8.0572,-4.925 -6.8756,1.5101 0.97874,5.3302 10.445,3.7315 11.319,-1.601 0.42091,-2.5676 -0.5852,-5.8906 -3.1248,-7.5504 -4.5931,-3.002 -11.789,-0.85284 -13.879,3.9848 -2.5191,5.8323 3.6449,13.868 7.2067,17.791 23.054,25.39 -18.603,33.856 -14.8,2.6462 1.4632,-12.006 47.755,-33.748 52.53,-87.395"
       id="path4075-5"
       style="fill:none;stroke:#000000;stroke-width:1px;stroke-linecap:round;stroke-linejoin:round" />
    <path
       d="m 83.961,190.15 c -11.212,-0.58204 -24.551,-4.9206 -34.195,-14.496 34.01,34.476 15.053,41.654 33.948,58.107"
       id="path4077-5"
       style="fill:none;stroke:#000000;stroke-width:1px;stroke-linecap:round" />
    <path
       d="m 36.595,253.96 c 16.053,-12.811 19.818,-6.5324 21.73,-26.585 1.0855,-11.386 3.9222,-24.405 -8.0629,-50.685 35.277,37.66 1.0758,57.207 7.3591,76.744"
       id="path4079-9"
       style="fill:none;stroke:#000000;stroke-width:1px;stroke-linecap:round" />
    <path
       d="m 41.96,234.88 c 6.5417,-0.85076 11.047,-4.6048 16.23,-8.0532"
       id="path4081-1"
       style="fill:none;stroke:#000000;stroke-width:1px" />
    <path
       d="m 54.984,241.14 c -9.92,22.17 -25.141,26.84 -38.918,54.57 -11.972,37.475 25.661,53.989 45.276,35.855 2.5784,-2.3836 13.038,-16.965 18.159,-20.492"
       id="path4083-6"
       style="fill:none;stroke:#000000;stroke-width:1px;stroke-linecap:round" />
    <path
       d="m 36.137,107.14 c -36.95,10.902 3.8154,50.467 17.008,71.892 l -2.2928,-1.1879 c -22.393,-25.29 -49.331,-61.19 -14.715,-70.7 z"
       id="path4085-0"
       style="stroke:#000000;stroke-width:0.30000001;stroke-linejoin:round" />
    <path
       d="m 51.137,308.46 c 13.865,22.955 -13.905,30.878 -21.639,27.553 1.1487,0.56347 -8.285,-5.5925 -7.1241,-4.4567 5.2365,5.1232 7.4835,8.6596 15.038,8.0514 15.484,-2.033 26.911,-21.883 13.725,-31.147 z"
       id="path4087-4"
       style="stroke:#000000;stroke-width:0.2" />
    <path
       d="m 32.114,337.15 c 28.287,18.881 27.374,31.046 29.711,40.344"
       id="path4089-9"
       style="fill:none;stroke:#000000;stroke-width:1px;stroke-linecap:round" />
    <path
       d="m 62.067,330.86 c 10.091,-3.2061 17.618,-0.56636 23.238,4.4023"
       id="path4091-1"
       style="fill:none;stroke:#000000;stroke-width:1px;stroke-linejoin:round" />
    <path
       d="M 317.13,56.346 C 269.66,56.546 196.41,47.224 184.81,42.47 -15.58,-28.23 -14.04,112.92 55.84,112.41"
       id="path4093-2"
       style="fill:none;stroke:#000000;stroke-width:1px;stroke-linecap:round" />
    <path
       d="M 77.683,63.681 C 74.304,62.941 69.6,59.469 66.381,55.446"
       id="path4095-3"
       style="fill:none;stroke:#000000;stroke-width:1px;stroke-linecap:round" />
    <path
       d="M 19.861,89.788 C 11.179,68.565 24.466,44.705 49.977,43.662"
       id="path4097-0"
       style="fill:none;stroke:#000000;stroke-width:1px" />
    <path
       d="m 13.641,71.39 c 7.485,-51.008 93.479,-53.216 107.93,2.103"
       id="path4099-6"
       style="fill:none;stroke:#000000;stroke-width:1px;stroke-linecap:round" />
    <path
       d="m 13.51,73.449 c 16.581,-64.392 91.78,-29.69 97.55,-20.456 36.446,18.498 60.365,3.5305 61.139,-17.669 0.42489,-11.633 -18.882,-29.718 -32.754,-12.118 21.046,-15.955 31.773,8.1679 29.238,19.63 -4.2631,19.273 -36.132,22.894 -58.499,9.1934 -4.2,-12.872 -75.75,-45.791 -96.889,19.055 z"
       id="path4101-0"
       style="stroke:#000000;stroke-width:0.2" />
    <path
       d="M 241.6,72.266 C 231.83,62.05 200.33,59.987 180.24,52.309 109.79,25.384 80.304,24.598 57.27,26.36"
       id="path4103-9"
       style="fill:none;stroke:#000000;stroke-width:1px" />
    <path
       d="M 169.08,67.001 C 161.1,56.501 145.29,45.384 117.13,31.97"
       id="path4105-4"
       style="fill:none;stroke:#000000;stroke-width:1px;stroke-linecap:round" />
    <g
       transform="matrix(0.99727,-0.073871,0.073871,0.99727,-13.873,-1.5805)"
       id="g4113"
       style="stroke:#000000">
      <path
         d="m 128.67,86.913 c -8.8603,1.624 -11.14,5.2476 -11.213,8.6108 2.0529,1.4535 8.8733,0.54138 11.213,-8.6108 z"
         id="path4107"
         style="stroke-width:0.40000001;stroke-linecap:round;stroke-linejoin:round" />
      <path
         d="m 129.41,94.161 c 4.5002,9.2362 4.6758,18.142 -1.0531,18.089 -4.8916,0.11422 -5.293,-8.2642 1.0531,-18.089 z"
         id="path4109"
         style="stroke-width:1px" />
      <path
         d="m 131.39,87.252 c 8.5239,2.913 10.244,6.833 9.8201,10.17 -2.2448,1.1349 -8.8561,-0.77315 -9.8201,-10.17 z"
         id="path4111"
         style="stroke-width:0.40000001;stroke-linecap:round;stroke-linejoin:round" />
    </g>
    <g
       transform="matrix(0.53834,-0.84273,0.84273,0.53834,-56.581,299.37)"
       id="g4118"
       style="stroke:#000000">
      <path
         d="m 128.67,86.913 c -8.8603,1.624 -11.14,5.2476 -11.213,8.6108 2.0529,1.4535 8.8733,0.54138 11.213,-8.6108 z"
         id="path4120"
         style="stroke-width:0.40000001;stroke-linecap:round;stroke-linejoin:round" />
      <path
         d="m 129.41,94.161 c 4.5002,9.2362 4.6758,18.142 -1.0531,18.089 -4.8916,0.11422 -5.293,-8.2642 1.0531,-18.089 z"
         id="path4122"
         style="stroke-width:1px" />
      <path
         d="m 131.39,87.252 c 8.5239,2.913 10.244,6.833 9.8201,10.17 -2.2448,1.1349 -8.8561,-0.77315 -9.8201,-10.17 z"
         id="path4124"
         style="stroke-width:0.40000001;stroke-linecap:round;stroke-linejoin:round" />
    </g>
    <path
       d="m 260.57,53.497 10.098,7.0621"
       id="path4126-3"
       style="fill:none;stroke:#000000;stroke-width:1px" />
    <path
       d="m 271.79,57.895 c 13.776,6.4116 22.118,6.1467 28.248,3.8408 -0.24588,1.7302 -1.7916,7.0848 -13.876,4.3983 2.828,2.2643 7.3475,3.3588 11.027,5.2036 1.3574,0.68062 5.4176,5.2281 6.8143,7.186 -2.0121,-0.1193 -7.5089,0.14247 -9.0444,-0.61948 -4.0982,-2.0337 -7.752,-6.0784 -12.018,-7.5577 9.1173,8.9857 5.9009,11.725 4.5222,14.124 -1.9481,-9.7866 -11.766,-15.763 -19.142,-22.797 -0.87153,-3.3166 -0.45133,-3.8004 3.4691,-3.7788 z"
       id="path4128"
       style="stroke:#000000;stroke-width:0.2;stroke-linecap:round;stroke-linejoin:round" />
    <path
       d="m 88.047,334.81 c 9.5161,8.1483 16.199,9.7891 21.579,9.3185 -0.57921,1.3193 -2.9948,5.2281 -11.995,0.41314 1.7431,2.4256 5.089,4.2976 7.6012,6.579 0.92681,0.84168 3.1418,5.3536 3.8163,7.2183 -1.5712,-0.54124 -5.9942,-1.5532 -7.0444,-2.499 -2.803,-2.5243 -4.8067,-6.5469 -7.8658,-8.6682 5.2457,9.1584 2.0838,10.619 0.45654,12.219 0.62491,-8.2034 -5.8453,-15.128 -10.141,-22.35 0.04394,-2.8269 0.48499,-3.1179 3.5933,-2.2308 z"
       id="path4130"
       style="stroke:#000000;stroke-width:0.2;stroke-linecap:round;stroke-linejoin:round" />
    <g
       transform="matrix(-0.29932,-0.95415,-0.95415,0.29932,154.61,354.58)"
       id="g4132"
       style="stroke:#000000">
      <path
         d="m 128.67,86.913 c -8.8603,1.624 -11.14,5.2476 -11.213,8.6108 2.0529,1.4535 8.8733,0.54138 11.213,-8.6108 z"
         id="path4134"
         style="stroke-width:0.40000001;stroke-linecap:round;stroke-linejoin:round" />
      <path
         d="m 129.41,94.161 c 4.5002,9.2362 4.6758,18.142 -1.0531,18.089 -4.8916,0.11422 -5.293,-8.2642 1.0531,-18.089 z"
         id="path4136"
         style="stroke-width:1px" />
      <path
         d="m 131.39,87.252 c 8.5239,2.913 10.244,6.833 9.8201,10.17 -2.2448,1.1349 -8.8561,-0.77315 -9.8201,-10.17 z"
         id="path4138"
         style="stroke-width:0.40000001;stroke-linecap:round;stroke-linejoin:round" />
    </g>
    <path
       d="m 17.924,121.27 c 12.266,-14.028 17.459,9.2366 8.0533,15.549 -12.516,6.961 6.1296,19.562 11.646,2.354 3.4049,-9.2841 1.4545,-15.653 -3.8408,-23.788 -3.9433,-5.4586 -6.0571,-11.798 -2.7257,-23.912 2.2208,-8.0044 11.669,-8.4656 12.39,-8.4869 10.136,-0.29884 10.136,6.865 10.903,9.7878 0.66753,7.2482 -4.2881,11.758 -7.9294,12.823 -11.566,3.3827 -8.7593,1.9495 -12.198,2.0848 l -0.50146,-1.9609 c 3.4757,0.51032 9.6218,0.6245 12.08,-0.80533 4.4318,-2.5779 7.248,-5.6786 7.3099,-12.142 0.46987,-9.8168 -17.131,-12.973 -21.124,-1.3009 -1.8417,10.331 4.1772,18.123 7.8674,27.071 4.28,9.072 1.7964,18.653 -0.18584,23.788 -6.9691,13 -25.324,3.1312 -19.7,-3.3452 15.033,-18.169 7.5597,-25.934 -2.0443,-17.717 z"
       id="path4140-6"
       style="stroke:#000000;stroke-width:0.2" />
    <path
       d="m 241.46,72.143 c 3.909,-0.63754 8.1395,1.0088 7.6196,6.7214 0.60336,0.15813 1.4304,0.18192 1.9514,0.09292 -1.6779,-3.395 2.9616,-7.4207 6.2568,-3.4071 3.9332,3.6019 7.3451,1.9646 10.283,1.8584 -2.2822,5.0608 -6.4199,3.9954 -10.283,3.8408 -2.3621,0.80191 -0.974,3.4918 0.74337,3.4691 5.2494,-1.5095 7.4068,4.5596 7.186,6.9382 -0.48839,4.351 0.31359,5.0947 0.68142,6.7214 -2.2481,-1.1093 -4.7606,-1.073 -7.2479,-1.146 -5.9111,-0.45587 -6.0349,-4.3014 -6.3187,-8.0533 -0.40393,-2.5144 -2.8799,-2.2367 -2.9735,-0.24779 0.27121,3.4292 2.1937,6.5474 -4.0266,10.345 -0.21526,-3.0455 0.50874,-8.4011 -1.2235,-9.3387 -2.8483,-1.7975 -3.9089,-8.0767 2.8651,-7.6661 -0.034,-0.46766 -0.0413,-1.2183 -0.34071,-1.7655 -4.4862,0.60172 -6.4964,-4.2008 -5.1727,-8.363 z"
       id="path4142"
       style="stroke:#000000;stroke-width:0.2" />
    <path
       d="m 77.364,63.768 c 2.3625,-3.1789 6.5457,-4.9419 10.149,-0.47883 0.54324,-0.30649 1.1535,-0.86512 1.4656,-1.2917 -3.5679,-1.2693 -3.0396,-7.3891 2.12,-6.8015 5.3311,-0.15216 6.6408,-3.7027 8.6763,-5.8243 1.8845,5.2219 -1.8276,7.3375 -4.709,9.9159 -1.1376,2.22 1.7315,3.1849 2.9486,1.973 2.7179,-4.738 8.4916,-1.8826 9.9888,-0.02131 2.6782,3.4637 3.7717,3.4393 5.1681,4.351 -2.3862,0.7686 -4.1647,2.5437 -6.0012,4.2227 -4.561,3.7876 -7.3269,1.113 -10.142,-1.383 -2.0403,-1.5239 -3.6246,0.39896 -2.3072,1.892 2.5818,2.2731 6.1328,3.1734 4.3109,10.23 -2.2746,-2.0366 -5.483,-6.3855 -7.3793,-5.8527 -3.2961,0.69237 -8.4287,-3.0773 -3.2796,-7.4981 -0.34996,-0.31207 -0.87775,-0.8459 -1.4736,-1.0303 -2.8019,3.555 -7.5882,1.5065 -9.5353,-2.4031 z"
       id="path4144"
       style="stroke:#000000;stroke-width:0.2" />
    <path
       d="m 42.378,235.07 c -1.0645,-3.8149 -4.3365,-6.9616 -9.3015,-4.0888 -0.39709,-0.48101 -0.76628,-1.2214 -0.90449,-1.7316 3.7858,0.0955 5.4886,-5.8063 0.46174,-7.1093 -4.9215,-2.055 -4.8699,-5.839 -6.0086,-8.5498 -3.6328,4.198 -0.92694,7.5046 0.83725,10.945 0.26519,2.4804 -2.759,2.3514 -3.4602,0.78361 -0.83676,-5.3977 -7.2505,-4.8043 -9.316,-3.6042 -3.7427,2.272 -4.7546,1.8569 -6.3852,2.2068 1.9515,1.5736 2.9746,3.8687 4.0863,6.0949 2.8982,5.172 6.4396,3.668 9.9632,2.3485 2.4513,-0.69031 3.24,1.673 1.4747,2.5939 -3.2255,1.1952 -6.863,0.76148 -7.6946,8.002 2.8539,-1.0848 7.4092,-3.9928 8.988,-2.8151 2.8282,1.829 8.9716,0.15208 5.7518,-5.8219 0.43863,-0.16572 1.1228,-0.4746 1.7452,-0.43292 1.3397,4.3236 6.5423,4.129 9.7626,1.1784 z"
       id="path4146"
       style="stroke:#000000;stroke-width:0.2" />
    <path
       d="m 57.083,252.21 c -2.5753,3.403 -3.1365,8.262 2.5675,10.643 -0.1531,0.65442 -0.54677,1.4543 -0.89385,1.9058 -2.3897,-3.3075 -8.5605,-0.91429 -6.3957,4.2454 1.4514,5.5602 -1.826,7.9864 -3.4063,10.732 5.9703,0.3735 7.0383,-4.1047 8.8359,-7.8631 1.9531,-1.8466 3.8169,0.82991 2.9307,2.4546 -4.0807,4.2411 0.61517,9.3516 2.9924,10.339 4.391,1.7251 4.6958,2.8635 6.0603,4.0328 0.07493,-2.7002 1.3744,-5.0755 2.5569,-7.4818 2.5414,-5.8608 -1.0598,-7.9146 -4.4913,-10.074 -2.1921,-1.6506 -0.68113,-3.8696 1.2609,-2.9575 3.1304,1.9846 5.1333,5.3859 11.883,1.3719 -2.7931,-1.7382 -8.2598,-3.7445 -8.2809,-5.8667 -0.27852,-3.6184 -5.7267,-7.7897 -8.7457,-1.1297 -0.42842,-0.26781 -1.1399,-0.65264 -1.5105,-1.2134 2.8317,-3.9709 -0.7316,-8.3036 -5.3633,-9.1378 z"
       id="path4148"
       style="stroke:#000000;stroke-width:0.2" />
    <g
       transform="matrix(0.0040788,-0.99999,0.99999,0.0040788,231.06,186.13)"
       id="g4152"
       style="stroke:#000000">
      <path
         d="m 128.67,86.913 c -8.8603,1.624 -11.14,5.2476 -11.213,8.6108 2.0529,1.4535 8.8733,0.54138 11.213,-8.6108 z"
         id="path4154"
         style="stroke-width:0.40000001;stroke-linecap:round;stroke-linejoin:round" />
      <path
         d="m 129.41,94.161 c 4.5002,9.2362 4.6758,18.142 -1.0531,18.089 -4.8916,0.11422 -5.293,-8.2642 1.0531,-18.089 z"
         id="path4156"
         style="stroke-width:1px" />
      <path
         d="m 131.39,87.252 c 8.5239,2.913 10.244,6.833 9.8201,10.17 -2.2448,1.1349 -8.8561,-0.77315 -9.8201,-10.17 z"
         id="path4158"
         style="stroke-width:0.40000001;stroke-linecap:round;stroke-linejoin:round" />
    </g>
    <path
       d="m 58.175,109.95 c 15.172,-0.84101 22.403,-5.0078 26.722,-9.9318 0.59894,1.6417 1.7605,7.0925 -10.163,10.421 3.5615,0.66343 8.0631,-0.50235 12.178,-0.61011 1.5179,-0.0398 7.2426,2.0561 9.3975,3.1242 -1.8306,0.84347 -6.5547,3.6661 -8.2681,3.7181 -4.573,0.13892 -9.7021,-1.7053 -14.162,-0.9985 12.277,3.6254 10.732,7.5573 10.647,10.323 -6.3323,-7.712 -17.808,-8.3528 -27.629,-11.079 -2.3323,-2.5138 -2.1899,-3.1387 1.2776,-4.9681 z"
       id="path4160"
       style="stroke:#000000;stroke-width:0.2;stroke-linecap:round;stroke-linejoin:round" />
    <path
       d="m 86.298,187.83 c 15.172,-0.84101 22.403,-5.0078 26.722,-9.9318 0.59894,1.6417 1.7605,7.0925 -10.163,10.421 3.5615,0.66343 8.0632,-0.50235 12.178,-0.61011 1.5179,-0.0398 7.2426,2.0561 9.3974,3.1242 -1.8306,0.84347 -6.5547,3.6661 -8.2681,3.7181 -4.573,0.13892 -9.7021,-1.7053 -14.162,-0.9985 12.277,3.6254 10.732,7.5573 10.647,10.323 -6.3323,-7.712 -17.808,-8.3528 -27.629,-11.079 -2.3323,-2.5138 -2.1899,-3.1387 1.2776,-4.9681 z"
       id="path4162"
       style="stroke:#000000;stroke-width:0.2;stroke-linecap:round;stroke-linejoin:round" />
    <g
       transform="matrix(-0.56006,-0.82845,0.82845,-0.56006,82.005,466.59)"
       id="g4164"
       style="stroke:#000000">
      <path
         d="m 128.67,86.913 c -8.8603,1.624 -11.14,5.2476 -11.213,8.6108 2.0529,1.4535 8.8733,0.54138 11.213,-8.6108 z"
         id="path4166"
         style="stroke-width:0.40000001;stroke-linecap:round;stroke-linejoin:round" />
      <path
         d="m 129.41,94.161 c 4.5002,9.2362 4.6758,18.142 -1.0531,18.089 -4.8916,0.11422 -5.293,-8.2642 1.0531,-18.089 z"
         id="path4168"
         style="stroke-width:1px" />
      <path
         d="m 131.39,87.252 c 8.5239,2.913 10.244,6.833 9.8201,10.17 -2.2448,1.1349 -8.8561,-0.77315 -9.8201,-10.17 z"
         id="path4170"
         style="stroke-width:0.40000001;stroke-linecap:round;stroke-linejoin:round" />
    </g>
    <g
       transform="matrix(0.9852,-0.17138,0.17138,0.9852,-80.935,315.66)"
       id="g4172"
       style="stroke:#000000">
      <path
         d="m 128.67,86.913 c -8.8603,1.624 -11.14,5.2476 -11.213,8.6108 2.0529,1.4535 8.8733,0.54138 11.213,-8.6108 z"
         id="path4174"
         style="stroke-width:0.40000001;stroke-linecap:round;stroke-linejoin:round" />
      <path
         d="m 129.41,94.161 c 4.5002,9.2362 4.6758,18.142 -1.0531,18.089 -4.8916,0.11422 -5.293,-8.2642 1.0531,-18.089 z"
         id="path4176"
         style="stroke-width:1px" />
      <path
         d="m 131.39,87.252 c 8.5239,2.913 10.244,6.833 9.8201,10.17 -2.2448,1.1349 -8.8561,-0.77315 -9.8201,-10.17 z"
         id="path4178"
         style="stroke-width:0.40000001;stroke-linecap:round;stroke-linejoin:round" />
    </g>
    <path
       d="m 172.67,66.815 c 10.876,10.611 18.835,13.123 25.383,12.977 -0.8049,1.5512 -4.0363,6.0919 -14.55,-0.44438 1.9188,3.0729 5.8209,5.6021 8.6818,8.5612 1.0554,1.0917 3.381,6.727 4.0506,9.0369 -1.8591,-0.77879 -7.1326,-2.3518 -8.3291,-3.5792 -3.1937,-3.2759 -5.3021,-8.3023 -8.8376,-11.111 5.6278,11.498 1.6859,13.017 -0.40952,14.825 1.4022,-9.8796 -5.8835,-18.769 -10.514,-27.849 0.27577,-3.4181 0.83248,-3.7355 4.5246,-2.417 z"
       id="path4180"
       style="stroke:#000000;stroke-width:0.2;stroke-linecap:round;stroke-linejoin:round" />
  </g>
</svg>
